<svg width="425" height="914" viewBox="0 0 425 914" fill="none" xmlns="http://www.w3.org/2000/svg">
<path d="M24 914L47.094 874L0.905991 874L24 914ZM120 580.24C120 582.45 121.791 584.24 124 584.24C126.209 584.24 128 582.45 128 580.24L120 580.24ZM28 878L28 290L20 290L20 878L28 878ZM120 290L120 580.24L128 580.24L128 290L120 290ZM74 244C99.4051 244 120 264.595 120 290L128 290C128 260.177 103.823 236 74 236L74 244ZM28 290C28 264.595 48.5949 244 74 244L74 236C44.1766 236 20 260.177 20 290L28 290Z" fill="#F3EBDF"/>
<path d="M123.512 487.863L123.512 681.637C123.512 709.044 145.73 731.262 173.137 731.262V731.262C200.544 731.262 222.762 709.044 222.762 681.637L222.762 487.863" stroke="#F3EBDF" stroke-width="8" stroke-linecap="round"/>
<path d="M222.762 487.863L222.762 289.363C222.762 261.956 244.98 239.738 272.387 239.738V239.738C299.794 239.738 322.012 261.956 322.012 289.363L322.012 487.863" stroke="#F3EBDF" stroke-width="8" stroke-linecap="round"/>
<path d="M326 369.014C326 366.805 324.209 365.014 322 365.014C319.791 365.014 318 366.805 318 369.014L326 369.014ZM417 -1.74846e-07L417 681.5L425 681.5L425 1.74846e-07L417 -1.74846e-07ZM326 681.5L326 369.014L318 369.014L318 681.5L326 681.5ZM371.5 727C346.371 727 326 706.629 326 681.5L318 681.5C318 711.047 341.953 735 371.5 735L371.5 727ZM417 681.5C417 706.629 396.629 727 371.5 727L371.5 735C401.047 735 425 711.047 425 681.5L417 681.5Z" fill="#F3EBDF"/>
</svg>
