<svg width="760" height="760" viewBox="0 0 760 760" fill="none" xmlns="http://www.w3.org/2000/svg">
<g clip-path="url(#clip0_340_519)">
<rect width="760" height="760" rx="380" fill="#272727"/>
<path d="M215.182 182.514C215.182 182.514 147.941 103.402 163.1 81.6356C178.258 59.8693 269.24 142.949 269.24 142.949C269.24 142.949 431.432 116.142 573.833 182.514C645.468 142.081 652.076 153.935 652.076 153.935C652.076 153.935 678.883 169.263 638.008 280.53C637.667 281.45 641.908 288.16 642.334 289.233C645.5 297.374 647.412 305.947 648.005 314.661C648.623 323.192 648.246 331.765 646.881 340.209C646.088 345.258 645.002 350.257 643.628 355.18C642.845 357.973 641.987 360.743 641.056 363.491C640.051 366.42 638.706 368.481 642.759 369.554C647.23 370.677 651.514 372.438 655.482 374.783C662.174 378.787 668.197 383.815 673.331 389.685C686.854 405.099 693.599 425.179 696.051 445.277L742.65 825.915L0.260742 806.192L14.7546 756.426C14.7546 756.426 84.2093 607.093 100.457 585.991C116.706 564.889 145.216 376.333 145.216 376.333C145.216 376.333 180.233 218.11 215.182 182.514Z" fill="white" stroke="black" stroke-miterlimit="10" stroke-linecap="round"/>
<path d="M149.932 374.34C150.15 374.611 150.409 374.846 150.698 375.038C151.776 375.67 152.98 376.054 154.224 376.163C168.178 378.682 181.884 382.421 195.185 387.335C210.977 392.894 226.194 399.966 240.625 408.454L279.184 424.924C279.184 424.924 306.214 434.155 326.651 433.831C422.914 393.62 578.838 413.496 578.838 413.496C578.838 413.496 618.606 387.948 626.083 387.574C633.56 387.199 629.166 410.651 629.166 410.651L562.13 498.33C562.13 498.33 548.947 506.25 511.154 522.498C473.361 538.746 435.994 538.32 398.184 535.254C360.374 532.189 333.583 486.902 333.583 486.902C333.583 486.902 311.17 421.858 289.182 464.931C267.194 508.004 247.863 513.267 247.863 513.267C211.825 524.695 196.888 522.072 157.766 498.773C118.645 475.474 102.823 430.204 96.2314 405.593C93.4843 395.214 92.6588 384.42 93.7959 373.744C94.3749 368.277 95.2946 363.116 99.9613 359.608C107.677 353.834 118.594 352.25 127.433 348.844C133.292 346.596 139.151 344.348 145.027 342.168C147.745 340.858 150.601 339.858 153.543 339.187C152.861 349.202 151.328 359.114 149.966 369.043C149.762 370.883 148.842 372.858 149.932 374.34Z" fill="black"/>
<path d="M798.205 763.835C798.205 763.835 771.448 734.575 771.448 695.93C770.303 675.213 770.303 654.448 771.448 633.731C772.577 604.785 765.857 576.072 751.998 550.634C751.998 550.634 716.726 484.04 693.989 456.671C671.251 429.301 631.295 418.367 631.295 418.367C631.295 418.367 488.894 398.593 571.31 515.941C571.31 515.941 588.12 542.476 610.364 559.95C610.364 559.95 610.534 610.227 588.12 655.054C565.707 699.881 570.97 780.986 570.97 780.986L798.205 763.835Z" fill="white" stroke="black" stroke-miterlimit="10" stroke-linecap="round"/>
<path d="M152.352 500.612C152.352 500.612 259.65 699.66 430.596 587.15" stroke="black" stroke-miterlimit="10" stroke-linecap="round"/>
<path d="M272.05 548.743C272.05 548.743 255.734 529.123 284.738 533.585C313.743 538.047 309.298 537.707 309.298 537.707C309.298 537.707 327.096 539.682 312.091 552.865C297.086 566.047 293.97 570.492 283.58 561.108C273.191 551.724 272.05 548.743 272.05 548.743Z" fill="#FFD2DB" stroke="black" stroke-miterlimit="10"/>
<path d="M292.793 566.115L300.934 600.178C300.934 600.178 290.493 610.891 268.982 609.937" stroke="black" stroke-miterlimit="10" stroke-linecap="round"/>
<path d="M300.884 600.11C300.884 600.11 327.709 615.558 360.665 609.921" stroke="black" stroke-miterlimit="10" stroke-linecap="round"/>
<path d="M-152.36 766.764L971.161 754.604L961.709 1082.8L-176 1025.06L-152.36 766.764Z" fill="#272727"/>
<path d="M548.012 273.36L608.627 280.172L621.503 193.874C602.155 218.995 576.557 245.769 548.012 273.36Z" fill="#FFD2DB"/>
<path d="M630.494 178.834C619.202 206.375 547.517 272.883 547.517 272.883" stroke="black" stroke-miterlimit="10" stroke-linecap="round"/>
<path d="M582.651 494.854C586.92 492.39 587.33 485.109 583.567 478.592C579.805 472.075 573.294 468.79 569.026 471.255C564.757 473.719 564.347 481 568.11 487.517C571.872 494.033 578.382 497.319 582.651 494.854Z" fill="#FFD2DB"/>
<path d="M616.04 525.628C623.411 520.644 625.021 510.147 619.635 502.184C614.25 494.221 603.909 491.807 596.538 496.791C589.167 501.776 587.557 512.273 592.942 520.236C598.328 528.199 608.669 530.613 616.04 525.628Z" fill="#FFD2DB"/>
<path d="M605.653 482.914C609.921 480.449 610.332 473.169 606.569 466.652C602.807 460.135 596.296 456.85 592.028 459.314C587.759 461.779 587.349 469.059 591.111 475.576C594.874 482.093 601.384 485.378 605.653 482.914Z" fill="#FFD2DB"/>
<path d="M631.418 486.11C635.011 484.036 635.555 478.254 632.635 473.195C629.714 468.136 624.434 465.717 620.842 467.791C617.249 469.865 616.705 475.647 619.625 480.706C622.546 485.765 627.826 488.184 631.418 486.11Z" fill="#FFD2DB"/>
<path d="M623.427 524.43C629.359 522.731 632.467 515.416 630.37 508.092C628.272 500.767 621.763 496.206 615.831 497.905C609.899 499.604 606.79 506.919 608.888 514.243C610.985 521.568 617.495 526.129 623.427 524.43Z" fill="#FFD2DB"/>
<path d="M610.709 531.264C614.396 526.41 612.758 518.961 607.05 514.625C601.343 510.29 593.727 510.71 590.04 515.564C586.353 520.417 587.991 527.867 593.699 532.202C599.407 536.538 607.022 536.118 610.709 531.264Z" fill="#FFD2DB"/>
<path d="M576.004 514.697C578.008 513.54 577.471 508.858 574.804 504.239C572.137 499.62 568.351 496.814 566.347 497.971C564.343 499.128 564.881 503.81 567.547 508.429C570.214 513.048 574 515.854 576.004 514.697Z" fill="#FFD2DB"/>
<path d="M603.773 554.279C603.773 554.279 618.727 567.904 629.082 570.936" stroke="black" stroke-miterlimit="10" stroke-linecap="round"/>
<path d="M210.071 176.314C210.071 176.314 232.587 205.864 240.95 211.791Z" fill="white"/>
<path d="M210.071 176.314C210.071 176.314 232.587 205.864 240.95 211.791" stroke="black" stroke-miterlimit="10" stroke-linecap="round"/>
</g>
<rect x="1" y="1" width="758" height="758" rx="379" stroke="#272727" stroke-width="2"/>
<defs>
<clipPath id="clip0_340_519">
<rect width="760" height="760" rx="380" fill="white"/>
</clipPath>
</defs>
</svg>
