<svg width="24" height="25" viewBox="0 0 24 25" fill="none" xmlns="http://www.w3.org/2000/svg">
<path d="M8.76471 21.4334C3.2 23.23 3.2 18.2251 1 17.5834M16.5294 24V19.5084C16.5294 18.2251 16.6588 17.7117 15.8824 16.9418C19.5059 16.5568 23 15.1451 23 9.24186C22.9984 7.70825 22.3951 6.23545 21.3176 5.13525C21.823 3.80312 21.7764 2.32687 21.1882 1.02864C21.1882 1.02864 19.7647 0.643641 16.6588 2.69695C14.0282 2.01754 11.2659 2.01754 8.63529 2.69695C5.52941 0.643641 4.10588 1.02864 4.10588 1.02864C3.51768 2.32687 3.47116 3.80312 3.97647 5.13525C2.89906 6.23545 2.29569 7.70825 2.29412 9.24186C2.29412 15.1451 5.78824 16.5568 9.41176 16.9418C8.63529 17.7117 8.63529 18.4817 8.76471 19.5084V24" stroke="black" stroke-width="2" stroke-linecap="round" stroke-linejoin="round"/>
</svg>
