<svg width="760" height="760" viewBox="0 0 760 760" fill="none" xmlns="http://www.w3.org/2000/svg">
<g clip-path="url(#clip0_335_1645)">
<rect width="760" height="760" rx="380" fill="#272727"/>
<path d="M239.601 179.61C239.601 179.61 188.87 119.975 200.306 103.567C211.742 87.1589 280.386 149.786 280.386 149.786C280.386 149.786 402.753 129.578 510.19 179.61C564.236 149.131 569.221 158.067 569.221 158.067C569.221 158.067 589.447 169.622 558.607 253.497C558.35 254.19 561.55 259.248 561.871 260.057C564.26 266.193 565.703 272.656 566.15 279.225C566.616 285.656 566.332 292.118 565.302 298.483C564.704 302.289 563.885 306.057 562.848 309.768C562.257 311.874 561.61 313.962 560.908 316.034C560.149 318.242 559.134 319.795 562.193 320.604C565.565 321.45 568.798 322.778 571.791 324.546C576.84 327.564 581.384 331.354 585.258 335.779C595.46 347.398 600.549 362.535 602.399 377.685L637.556 664.616L77.4502 649.749L88.3853 612.234C88.3853 612.234 140.786 499.665 153.045 483.758C165.304 467.851 186.814 325.714 186.814 325.714C186.814 325.714 213.233 206.443 239.601 179.61Z" fill="white" stroke="black" stroke-miterlimit="10" stroke-linecap="round"/>
<path d="M190.375 324.212C190.539 324.416 190.734 324.593 190.953 324.738C191.766 325.214 192.674 325.504 193.613 325.586C204.141 327.485 214.481 330.303 224.516 334.008C236.431 338.198 247.912 343.529 258.799 349.928L287.891 362.343C287.891 362.343 308.283 369.301 323.703 369.057C396.33 338.745 513.969 353.728 513.969 353.728C513.969 353.728 543.973 334.47 549.614 334.187C555.255 333.905 551.94 351.584 551.94 351.584L501.363 417.677C501.363 417.677 491.417 423.647 462.904 435.895C434.39 448.143 406.198 447.822 377.672 445.512C349.146 443.201 328.933 409.063 328.933 409.063C328.933 409.063 312.023 360.032 295.434 392.501C278.845 424.97 264.26 428.937 264.26 428.937C237.07 437.552 225.801 435.574 196.285 418.011C166.77 400.448 154.832 366.323 149.859 347.771C147.787 339.947 147.164 331.81 148.022 323.763C148.459 319.641 149.153 315.751 152.674 313.106C158.494 308.754 166.731 307.56 173.4 304.992C177.82 303.298 182.241 301.603 186.674 299.96C188.724 298.973 190.88 298.219 193.099 297.713C192.585 305.262 191.428 312.734 190.4 320.219C190.246 321.606 189.552 323.095 190.375 324.212Z" fill="black"/>
<path d="M679.472 617.819C679.472 617.819 659.286 595.762 659.286 566.631C658.421 551.014 658.421 535.362 659.286 519.745C660.138 497.924 655.067 476.28 644.611 457.105C644.611 457.105 617.999 406.906 600.845 386.274C583.691 365.642 553.545 357.4 553.545 357.4C553.545 357.4 446.109 342.494 508.289 430.952C508.289 430.952 520.971 450.955 537.753 464.127C537.753 464.127 537.882 502.027 520.971 535.818C504.061 569.61 508.032 630.748 508.032 630.748L679.472 617.819Z" fill="white" stroke="black" stroke-miterlimit="10" stroke-linecap="round"/>
<path d="M192.199 419.397C192.199 419.397 273.152 569.443 402.125 484.631" stroke="black" stroke-miterlimit="10" stroke-linecap="round"/>
<path d="M282.506 455.68C282.506 455.68 270.196 440.89 292.079 444.254C310.966 447.215 310.966 447.215 310.966 447.215C310.966 447.215 324.036 448.85 312.716 458.787C301.395 468.724 299.044 472.075 291.205 465.001C283.367 457.927 282.506 455.68 282.506 455.68Z" fill="#FFD2DB" stroke="black" stroke-miterlimit="10"/>
<path d="M298.158 468.775L304.3 494.452C304.3 494.452 296.424 502.528 280.194 501.809" stroke="black" stroke-miterlimit="10" stroke-linecap="round"/>
<path d="M304.263 494.401C304.263 494.401 324.501 506.046 349.365 501.796" stroke="black" stroke-miterlimit="10" stroke-linecap="round"/>
<path d="M-260.037 620.645L1005 611.501L994.357 858.262L-286.654 814.851L-260.037 620.645Z" fill="#917E6C"/>
<path d="M490.711 248.091L536.443 253.227L546.157 188.173C531.56 207.11 512.247 227.293 490.711 248.091Z" fill="#FFD2DB"/>
<path d="M552.941 176.836C544.421 197.596 490.337 247.731 490.337 247.731" stroke="black" stroke-miterlimit="10" stroke-linecap="round"/>
<path d="M516.845 415.058C520.066 413.201 520.375 407.712 517.537 402.8C514.698 397.887 509.786 395.411 506.566 397.269C503.345 399.126 503.036 404.615 505.874 409.527C508.713 414.44 513.625 416.916 516.845 415.058Z" fill="#FFD2DB"/>
<path d="M542.035 438.255C547.596 434.498 548.811 426.585 544.747 420.582C540.684 414.58 532.882 412.76 527.321 416.517C521.76 420.275 520.546 428.187 524.609 434.19C528.672 440.193 536.474 442.013 542.035 438.255Z" fill="#FFD2DB"/>
<path d="M534.2 406.057C537.42 404.2 537.73 398.711 534.891 393.799C532.052 388.886 527.14 386.41 523.92 388.268C520.7 390.125 520.39 395.614 523.229 400.526C526.067 405.439 530.979 407.915 534.2 406.057Z" fill="#FFD2DB"/>
<path d="M553.638 408.466C556.349 406.902 556.759 402.543 554.556 398.73C552.352 394.917 548.369 393.093 545.659 394.656C542.948 396.22 542.537 400.579 544.741 404.392C546.944 408.205 550.928 410.029 553.638 408.466Z" fill="#FFD2DB"/>
<path d="M547.609 437.352C552.084 436.071 554.43 430.557 552.847 425.035C551.265 419.514 546.354 416.076 541.878 417.357C537.403 418.637 535.057 424.151 536.64 429.673C538.222 435.194 543.133 438.632 547.609 437.352Z" fill="#FFD2DB"/>
<path d="M538.014 442.504C540.795 438.845 539.559 433.23 535.253 429.962C530.947 426.693 525.201 427.01 522.419 430.669C519.638 434.328 520.874 439.943 525.18 443.211C529.486 446.48 535.232 446.163 538.014 442.504Z" fill="#FFD2DB"/>
<path d="M511.83 430.016C513.342 429.144 512.937 425.614 510.925 422.133C508.913 418.651 506.056 416.536 504.544 417.408C503.032 418.28 503.438 421.809 505.45 425.291C507.461 428.773 510.318 430.888 511.83 430.016Z" fill="#FFD2DB"/>
<path d="M532.78 459.852C532.78 459.852 544.062 470.123 551.875 472.408" stroke="black" stroke-miterlimit="10" stroke-linecap="round"/>
<path d="M235.747 174.937C235.747 174.937 252.734 197.212 259.044 201.68Z" fill="white"/>
<path d="M235.747 174.937C235.747 174.937 252.734 197.212 259.044 201.68" stroke="black" stroke-miterlimit="10" stroke-linecap="round"/>
</g>
<defs>
<clipPath id="clip0_335_1645">
<rect width="760" height="760" rx="380" fill="white"/>
</clipPath>
</defs>
</svg>
