<svg width="760" height="760" viewBox="0 0 760 760" fill="none" xmlns="http://www.w3.org/2000/svg">
<g clip-path="url(#clip0_335_1645)">
<rect width="760" height="760" rx="380" fill="#272727"/>
<path d="M235.13 173.412C235.13 173.412 183.351 112.544 195.024 95.7972C206.696 79.0503 276.758 142.971 276.758 142.971C276.758 142.971 401.654 122.346 511.311 173.412C566.474 142.303 571.562 151.424 571.562 151.424C571.562 151.424 592.206 163.217 560.729 248.825C560.467 249.533 563.733 254.696 564.061 255.521C566.499 261.784 567.971 268.381 568.428 275.086C568.904 281.649 568.613 288.245 567.562 294.742C566.952 298.626 566.115 302.472 565.057 306.26C564.454 308.409 563.794 310.541 563.077 312.655C562.303 314.909 561.267 316.494 564.388 317.32C567.831 318.183 571.13 319.538 574.185 321.343C579.339 324.423 583.977 328.292 587.93 332.809C598.344 344.668 603.537 360.117 605.426 375.58L641.309 668.44L69.6289 653.266L80.79 614.976C80.79 614.976 134.274 500.081 146.786 483.845C159.298 467.609 181.253 322.535 181.253 322.535C181.253 322.535 208.218 200.799 235.13 173.412Z" fill="white" stroke="black" stroke-miterlimit="10" stroke-linecap="round"/>
<path d="M184.886 321.002C185.055 321.21 185.254 321.391 185.477 321.539C186.306 322.025 187.233 322.321 188.191 322.404C198.937 324.343 209.491 327.219 219.734 331C231.894 335.277 243.613 340.719 254.725 347.249L284.418 359.921C284.418 359.921 305.232 367.023 320.97 366.774C395.098 335.836 515.168 351.128 515.168 351.128C515.168 351.128 545.792 331.472 551.549 331.184C557.307 330.896 553.923 348.94 553.923 348.94L502.302 416.399C502.302 416.399 492.15 422.492 463.048 434.994C433.945 447.495 405.17 447.167 376.054 444.808C346.938 442.45 326.308 407.606 326.308 407.606C326.308 407.606 309.048 357.562 292.117 390.702C275.185 423.842 260.299 427.891 260.299 427.891C232.547 436.684 221.045 434.666 190.919 416.74C160.794 398.813 148.61 363.983 143.534 345.048C141.419 337.062 140.783 328.758 141.659 320.544C142.105 316.337 142.813 312.367 146.406 309.667C152.348 305.225 160.754 304.006 167.561 301.386C172.073 299.656 176.584 297.926 181.109 296.249C183.202 295.241 185.402 294.472 187.667 293.956C187.142 301.661 185.962 309.287 184.913 316.927C184.755 318.342 184.047 319.862 184.886 321.002Z" fill="black"/>
<path d="M684.092 620.677C684.092 620.677 663.488 598.164 663.488 568.431C662.606 552.491 662.606 536.515 663.488 520.575C664.357 498.304 659.182 476.213 648.51 456.641C648.51 456.641 621.348 405.405 603.84 384.347C586.331 363.289 555.562 354.876 555.562 354.876C555.562 354.876 445.906 339.662 509.371 429.948C509.371 429.948 522.315 450.364 539.444 463.809C539.444 463.809 539.575 502.492 522.315 536.982C505.056 571.471 509.108 633.872 509.108 633.872L684.092 620.677Z" fill="white" stroke="black" stroke-miterlimit="10" stroke-linecap="round"/>
<path d="M186.749 418.154C186.749 418.154 269.375 571.3 401.013 484.736" stroke="black" stroke-miterlimit="10" stroke-linecap="round"/>
<path d="M278.922 455.187C278.922 455.187 266.358 440.091 288.693 443.524C307.97 446.546 307.97 446.546 307.97 446.546C307.97 446.546 321.311 448.215 309.756 458.358C298.202 468.5 295.801 471.92 287.801 464.7C279.801 457.48 278.922 455.187 278.922 455.187Z" fill="#FFD2DB" stroke="black" stroke-miterlimit="10"/>
<path d="M294.898 468.552L301.167 494.76C301.167 494.76 293.127 503.003 276.562 502.269" stroke="black" stroke-miterlimit="10" stroke-linecap="round"/>
<path d="M301.128 494.708C301.128 494.708 321.784 506.593 347.162 502.256" stroke="black" stroke-miterlimit="10" stroke-linecap="round"/>
<path d="M-274.833 623.56L1016.35 614.229L1005.48 866.088L-302 821.781L-274.833 623.56Z" fill="#917E6C"/>
<path d="M491.43 243.309L538.107 248.55L548.022 182.152C533.123 201.481 513.411 222.08 491.43 243.309Z" fill="#FFD2DB"/>
<path d="M554.945 170.581C546.25 191.77 491.048 242.941 491.048 242.941" stroke="black" stroke-miterlimit="10" stroke-linecap="round"/>
<path d="M518.104 413.726C521.391 411.829 521.707 406.228 518.81 401.214C515.912 396.2 510.899 393.672 507.612 395.568C504.325 397.464 504.009 403.066 506.906 408.08C509.804 413.094 514.817 415.622 518.104 413.726Z" fill="#FFD2DB"/>
<path d="M543.814 437.402C549.49 433.567 550.729 425.491 546.582 419.364C542.435 413.237 534.472 411.38 528.796 415.215C523.12 419.05 521.88 427.126 526.027 433.253C530.174 439.38 538.138 441.238 543.814 437.402Z" fill="#FFD2DB"/>
<path d="M535.817 404.539C539.104 402.642 539.42 397.041 536.522 392.027C533.625 387.013 528.612 384.485 525.325 386.381C522.038 388.277 521.722 393.879 524.619 398.893C527.516 403.907 532.53 406.435 535.817 404.539Z" fill="#FFD2DB"/>
<path d="M555.657 406.997C558.424 405.401 558.843 400.952 556.594 397.06C554.345 393.168 550.279 391.306 547.513 392.902C544.746 394.498 544.327 398.947 546.576 402.839C548.825 406.731 552.891 408.593 555.657 406.997Z" fill="#FFD2DB"/>
<path d="M549.503 436.48C554.071 435.173 556.465 429.544 554.85 423.909C553.235 418.273 548.222 414.764 543.654 416.071C539.086 417.378 536.692 423.007 538.307 428.642C539.923 434.278 544.935 437.787 549.503 436.48Z" fill="#FFD2DB"/>
<path d="M539.71 441.739C542.549 438.004 541.287 432.273 536.892 428.937C532.497 425.601 526.632 425.925 523.793 429.659C520.954 433.394 522.215 439.125 526.611 442.461C531.006 445.796 536.87 445.473 539.71 441.739Z" fill="#FFD2DB"/>
<path d="M512.984 428.993C514.528 428.102 514.114 424.5 512.06 420.946C510.007 417.393 507.091 415.233 505.548 416.124C504.005 417.014 504.419 420.616 506.472 424.17C508.526 427.724 511.441 429.883 512.984 428.993Z" fill="#FFD2DB"/>
<path d="M534.368 459.445C534.368 459.445 545.883 469.928 553.857 472.261" stroke="black" stroke-miterlimit="10" stroke-linecap="round"/>
<path d="M231.196 168.642C231.196 168.642 248.535 191.377 254.974 195.938Z" fill="white"/>
<path d="M231.196 168.642C231.196 168.642 248.535 191.377 254.974 195.938" stroke="black" stroke-miterlimit="10" stroke-linecap="round"/>
</g>
<defs>
<clipPath id="clip0_335_1645">
<rect width="760" height="760" rx="380" fill="white"/>
</clipPath>
</defs>
</svg>
