<svg width="204" height="186" viewBox="0 0 204 186" fill="none" xmlns="http://www.w3.org/2000/svg">
<path d="M27.6246 71.2527H9.79273C7.40767 71.2527 5.49968 69.325 5.49968 66.9526C5.49968 64.5802 7.40767 62.6511 9.79273 62.6511H27.6246C29.1398 62.6511 30.3744 61.4221 30.3744 59.9097V42.0723C30.3744 39.6999 32.2965 37.7708 34.6676 37.7708C37.0386 37.7708 38.9746 39.6999 38.9746 42.0723V59.9097C38.9746 61.4221 40.1952 62.6511 41.7245 62.6511H59.5422C61.9273 62.6511 63.8494 64.5802 63.8494 66.9526C63.8494 69.325 61.9273 71.2527 59.5422 71.2527H41.7245C40.1952 71.2527 38.9746 72.4845 38.9746 73.9969V91.8329C38.9746 94.2053 37.0386 96.1331 34.6676 96.1331C32.2965 96.1331 30.3744 94.2053 30.3744 91.8329V73.9969C30.3744 72.4845 29.1398 71.2527 27.6246 71.2527ZM59.5422 57.1655H44.4603V42.0723C44.4603 36.6751 40.069 32.2851 34.6676 32.2851C29.2801 32.2851 24.8888 36.6751 24.8888 42.0723V57.1655H9.79273C4.40531 57.1655 0 61.5568 0 66.9526C0 72.3484 4.40531 76.7383 9.79273 76.7383H24.8888V91.8329C24.8888 97.2287 29.2801 101.619 34.6676 101.619C40.069 101.619 44.4603 97.2287 44.4603 91.8329V76.7383H59.5422C64.9437 76.7383 69.335 72.3484 69.335 66.9526C69.335 61.5568 64.9437 57.1655 59.5422 57.1655Z" fill="#C6CAD7"/>
<path d="M144.54 32.3892C138.443 32.3892 133.486 27.428 133.486 21.3335C133.486 15.2347 138.443 10.2749 144.54 10.2749C150.638 10.2749 155.595 15.2347 155.595 21.3335C155.595 27.428 150.638 32.3892 144.54 32.3892ZM144.54 -1.17589e-05C132.784 -1.17589e-05 123.207 9.57014 123.207 21.3335C123.207 33.0955 132.784 42.6655 144.54 42.6655C156.297 42.6655 165.874 33.0955 165.874 21.3335C165.874 9.57014 156.297 -1.17589e-05 144.54 -1.17589e-05Z" fill="#47537D"/>
<path d="M192.508 134.985C189.27 134.985 186.625 132.35 186.625 129.112C186.625 125.872 189.27 123.236 192.508 123.236C195.746 123.236 198.391 125.872 198.391 129.112C198.391 132.35 195.746 134.985 192.508 134.985ZM192.508 117.779C186.254 117.779 181.174 122.862 181.174 129.112C181.174 135.361 186.254 140.444 192.508 140.444C198.762 140.444 203.842 135.361 203.842 129.112C203.842 122.862 198.762 117.779 192.508 117.779Z" fill="#C6CAD7"/>
<path d="M134.358 172.559L98.0721 150.639L135.185 130.169L134.358 172.559ZM143.401 180.507L144.546 122.383C144.575 120.745 143.734 119.202 142.329 118.356C140.923 117.509 139.155 117.474 137.735 118.266L86.6385 146.431C85.2184 147.222 84.2909 148.731 84.2619 150.37C84.2474 152.006 85.088 153.551 86.4936 154.397L136.431 184.556C138.604 185.869 141.43 185.169 142.749 182.998C143.213 182.21 143.445 181.309 143.401 180.507Z" fill="#353E5E"/>
</svg>
