<svg width="916" height="916" viewBox="0 0 916 916" fill="none" xmlns="http://www.w3.org/2000/svg">
<path d="M468.636 907.36L465.44 907.226L461.002 886.419L460.756 886.409L454.516 906.766L450.968 906.617L446.425 885.806L446.214 885.797L440.044 906.157L436.848 906.023L444.872 880.885L448.139 881.022L452.842 901.383L453.053 901.391L459.485 881.5L462.751 881.637L468.636 907.36Z" fill="black"/>
<path d="M390.665 901.733L375.5 898.867L376.022 896.103L388.078 898.382L389.659 890.022L378.397 887.894L378.913 885.165L390.175 887.293L391.762 878.899L379.533 876.587L380.055 873.824L395.393 876.723L390.665 901.733Z" fill="black"/>
<path d="M338.769 890.767L330.262 888.051C328.621 887.527 327.331 886.808 326.393 885.894C325.444 884.975 324.852 883.938 324.619 882.781C324.371 881.631 324.447 880.45 324.846 879.237C325.163 878.243 325.605 877.456 326.173 876.874C326.736 876.303 327.38 875.906 328.103 875.682C328.823 875.469 329.596 875.377 330.423 875.408L330.498 875.173C329.72 874.876 329.035 874.362 328.444 873.632C327.842 872.898 327.439 872.001 327.237 870.94C327.03 869.89 327.122 868.757 327.51 867.54C327.92 866.293 328.569 865.282 329.456 864.507C330.332 863.729 331.467 863.255 332.862 863.085C334.246 862.912 335.859 863.119 337.701 863.707L346.509 866.519L338.769 890.767ZM336.879 866.397C335.663 866.009 334.61 865.857 333.722 865.943C332.822 866.025 332.105 866.288 331.569 866.732C331.023 867.173 330.637 867.763 330.413 868.503C330.138 869.326 330.102 870.151 330.306 870.979C330.498 871.803 330.919 872.546 331.568 873.208C332.218 873.871 333.045 874.363 334.05 874.683L339.978 876.576L342.64 868.236L336.879 866.397ZM333.752 877.467C332.881 877.189 332.033 877.109 331.208 877.227C330.383 877.345 329.664 877.65 329.052 878.144C328.439 878.637 328.001 879.297 327.737 880.123C327.505 880.848 327.466 881.549 327.619 882.226C327.769 882.913 328.138 883.529 328.727 884.074C329.305 884.615 330.101 885.048 331.117 885.372L336.61 887.125L339.144 879.188L333.752 877.467Z" fill="black"/>
<path d="M267.878 836.415L266.51 838.872L261.319 835.982C259.527 834.984 257.839 834.5 256.253 834.529C254.657 834.552 253.203 835.043 251.891 836.003C250.573 836.972 249.409 838.363 248.4 840.175C247.397 841.977 246.828 843.686 246.693 845.301C246.558 846.916 246.883 848.391 247.668 849.727C248.454 851.063 249.696 852.204 251.396 853.151L256.986 856.264L255.617 858.721L249.843 855.505C247.693 854.308 246.09 852.839 245.034 851.097C243.979 849.356 243.506 847.423 243.616 845.298C243.727 843.173 244.42 840.964 245.697 838.67C246.986 836.356 248.51 834.596 250.268 833.389C252.027 832.182 253.948 831.575 256.031 831.568C258.114 831.561 260.271 832.179 262.503 833.422L267.878 836.415ZM266.649 835.731L269.414 837.27L257.03 859.508L254.266 857.968L266.649 835.731Z" fill="black"/>
<path d="M204.915 828.726L192.488 819.574L194.156 817.309L204.035 824.585L209.081 817.735L199.853 810.939L201.5 808.702L210.728 815.499L215.794 808.62L205.773 801.24L207.441 798.975L220.009 808.232L204.915 828.726Z" fill="black"/>
<path d="M157.259 782.232C156.757 782.886 156.485 783.603 156.443 784.384C156.392 785.156 156.565 785.939 156.962 786.731C157.351 787.514 157.917 788.256 158.66 788.954C159.462 789.709 160.291 790.247 161.147 790.569C162.002 790.891 162.821 790.978 163.604 790.829C164.379 790.689 165.044 790.325 165.598 789.736C166.4 788.866 166.668 787.871 166.401 786.752C166.127 785.641 165.611 784.504 164.854 783.342L163.492 781.096C162.403 779.38 161.699 777.656 161.381 775.925C161.063 774.194 161.622 772.564 163.059 771.036C164.014 770.021 165.142 769.352 166.442 769.03C167.734 768.717 169.109 768.803 170.566 769.289C172.024 769.775 173.452 770.676 174.852 771.993C176.167 773.229 177.106 774.522 177.67 775.873C178.234 777.224 178.436 778.548 178.277 779.846C178.109 781.136 177.582 782.33 176.695 783.426L174.339 781.211C174.906 780.488 175.205 779.708 175.237 778.87C175.261 778.024 175.066 777.188 174.651 776.364C174.228 775.548 173.637 774.791 172.877 774.093C172.024 773.29 171.127 772.704 170.187 772.335C169.247 771.966 168.348 771.852 167.491 771.995C166.625 772.146 165.883 772.55 165.264 773.207C164.727 773.779 164.435 774.406 164.39 775.087C164.336 775.777 164.466 776.486 164.778 777.214C165.074 777.943 165.502 778.771 166.061 779.699L167.762 782.457C168.864 784.33 169.455 786.044 169.536 787.601C169.609 789.149 169.071 790.525 167.922 791.729C166.959 792.753 165.826 793.402 164.525 793.674C163.223 793.946 161.885 793.838 160.511 793.349C159.136 792.861 157.851 792.055 156.656 790.931C155.478 789.823 154.616 788.61 154.07 787.292C153.523 785.974 153.335 784.686 153.503 783.429C153.656 782.173 154.156 781.067 155.006 780.113L157.259 782.232Z" fill="black"/>
<path d="M142.018 739.524L144.113 741.896L125.033 758.743L122.938 756.371L142.018 739.524Z" fill="black"/>
<path d="M101.509 717.185C100.825 718.122 100.357 719.099 100.105 720.115C99.8457 721.122 99.8163 722.138 100.016 723.162C100.217 724.186 100.665 725.184 101.361 726.156C102.248 727.395 103.365 728.281 104.713 728.814C106.061 729.348 107.563 729.462 109.217 729.156C110.872 728.85 112.567 728.076 114.301 726.834C116.034 725.593 117.304 724.236 118.11 722.765C118.916 721.294 119.282 719.822 119.206 718.348C119.121 716.881 118.62 715.496 117.701 714.194C116.862 713.022 115.869 712.169 114.723 711.635C113.57 711.091 112.353 710.903 111.074 711.069C109.796 711.236 108.537 711.763 107.298 712.65L106.888 711.776L111.31 717.949L109.052 719.566L103.382 711.649L105.611 710.053C107.298 708.845 109.035 708.141 110.823 707.941C112.602 707.748 114.3 708.046 115.917 708.834C117.533 709.622 118.928 710.835 120.102 712.474C121.419 714.313 122.145 716.243 122.282 718.264C122.411 720.276 121.948 722.237 120.893 724.145C119.839 726.054 118.235 727.779 116.081 729.321C113.938 730.856 111.793 731.816 109.646 732.2C107.49 732.591 105.487 732.411 103.638 731.66C101.788 730.909 100.229 729.648 98.9599 727.875C97.9295 726.437 97.2655 724.916 96.9679 723.313C96.6634 721.7 96.7459 720.135 97.2154 718.617C97.6684 717.096 98.465 715.733 99.6051 714.527L101.509 717.185Z" fill="black"/>
<path d="M82.9101 654.161L84.3096 656.841L73.1126 678.235L73.2265 678.453L90.8026 669.275L92.2672 672.08L69.705 683.861L68.2892 681.15L79.5174 659.74L79.4035 659.522L61.7962 668.716L60.3479 665.942L82.9101 654.161Z" fill="black"/>
<path d="M42.2508 627.767L36.9256 613.281L39.5654 612.311L43.7988 623.827L51.7842 620.891L47.8297 610.134L50.4365 609.176L54.391 619.933L62.4093 616.985L58.1152 605.304L60.7549 604.334L66.1408 618.985L42.2508 627.767Z" fill="black"/>
<path d="M25.0826 577.694L23.091 569.278C22.6457 567.396 22.5939 565.753 22.9357 564.347C23.2747 562.93 23.9473 561.778 24.9534 560.889C25.9594 560.001 27.2151 559.379 28.7204 559.022C30.2143 558.669 31.5972 558.661 32.8692 558.998C34.1298 559.338 35.2292 560.065 36.1674 561.18C37.1055 562.295 37.7959 563.787 38.2385 565.657L39.8415 572.431L37.0362 573.095L35.4655 566.458C35.1606 565.169 34.7242 564.165 34.1562 563.444C33.5856 562.712 32.9093 562.246 32.1273 562.046C31.3426 561.834 30.4472 561.841 29.4409 562.067C28.4287 562.319 27.6022 562.719 26.9614 563.268C26.3065 563.809 25.8837 564.541 25.693 565.465C25.4995 566.378 25.5553 567.479 25.8603 568.767L27.0908 573.967L49.123 568.754L49.8516 571.833L25.0826 577.694ZM45.6336 554.008L46.4837 557.601L36.7818 566.219L35.956 562.729L45.6336 554.008Z" fill="black"/>
<path d="M35.6051 494.755L9.81809 486.407L9.69187 483.07L34.7747 472.798L34.9009 476.136L13.862 484.495L13.87 484.706L35.4802 491.453L35.6051 494.755ZM25.0014 477.636L27.7767 477.531L28.2696 490.564L25.4943 490.669L25.0014 477.636Z" fill="black"/>
<path d="M36.4648 416.772L36.1692 419.781L15.0884 431.557L15.0644 431.802L34.7975 433.741L34.4881 436.89L9.15692 434.401L9.45602 431.357L30.5718 419.584L30.5958 419.339L10.8277 417.397L11.1337 414.283L36.4648 416.772Z" fill="black"/>
<path d="M41.9789 376.224L39.2443 375.566L40.6332 369.79C41.1126 367.796 41.1252 366.039 40.6709 364.52C40.2194 362.989 39.3553 361.72 38.0785 360.714C36.7903 359.706 35.1379 358.959 33.1212 358.474C31.1158 357.992 29.3172 357.903 27.7254 358.207C26.1336 358.511 24.7999 359.221 23.7242 360.337C22.6485 361.452 21.8832 362.955 21.4285 364.847L19.9327 371.068L17.1981 370.41L18.7432 363.984C19.3185 361.591 20.3029 359.653 21.6965 358.168C23.09 356.683 24.825 355.708 26.9014 355.243C28.9778 354.778 31.2921 354.852 33.8444 355.466C36.4194 356.085 38.5246 357.079 40.16 358.449C41.7953 359.818 42.8963 361.505 43.4629 363.51C44.0296 365.514 44.0143 367.758 43.4171 370.242L41.9789 376.224ZM42.3076 374.857L41.5679 377.933L16.8201 371.983L17.5597 368.906L42.3076 374.857Z" fill="black"/>
<path d="M43.2167 284.869L46.8439 277.017C47.65 275.273 48.6449 273.958 49.8288 273.072C51.0126 272.186 52.2904 271.711 53.6622 271.648C55.0234 271.579 56.4114 271.872 57.8263 272.526C59.2305 273.175 60.3531 274.042 61.1941 275.127C62.0351 276.213 62.5073 277.496 62.6107 278.977C62.719 280.447 62.3725 282.049 61.5714 283.783L58.9764 289.4L56.4232 288.22L58.9592 282.731C59.5097 281.539 59.7544 280.465 59.6934 279.507C59.6324 278.55 59.3241 277.736 58.7686 277.066C58.2181 276.386 57.4665 275.819 56.514 275.366C55.5516 274.935 54.633 274.73 53.758 274.751C52.888 274.762 52.0714 275.063 51.3084 275.653C50.5503 276.232 49.8935 277.123 49.3381 278.325L47.097 283.176L67.6501 292.671L66.3231 295.544L43.2167 284.869Z" fill="black"/>
<path d="M78.0265 218.399L92.2582 227.401C93.7239 228.328 94.8169 229.505 95.5371 230.931C96.2574 232.357 96.5483 233.914 96.41 235.602C96.2717 237.289 95.6763 238.965 94.6238 240.628C93.5714 242.292 92.3124 243.548 90.847 244.396C89.3816 245.244 87.8503 245.648 86.253 245.608C84.6558 245.569 83.1242 245.085 81.6585 244.158L67.4268 235.156L69.1183 232.482L83.142 241.353C84.1818 242.01 85.2519 242.368 86.3522 242.426C87.4426 242.478 88.493 242.221 89.5035 241.653C90.5203 241.076 91.3951 240.208 92.1281 239.05C92.861 237.891 93.2673 236.734 93.3468 235.578C93.4326 234.412 93.2154 233.352 92.6951 232.399C92.1712 231.43 91.3924 230.611 90.3588 229.943L76.3351 221.073L78.0265 218.399Z" fill="black"/>
<path d="M102.253 183.055L107.988 176.21C109.095 174.89 110.249 173.969 111.451 173.447C112.66 172.916 113.844 172.762 115.003 172.984C116.161 173.19 117.226 173.708 118.197 174.537C118.997 175.207 119.558 175.915 119.882 176.66C120.196 177.397 120.32 178.143 120.254 178.898C120.178 179.645 119.97 180.395 119.629 181.149L119.817 181.307C120.388 180.699 121.122 180.26 122.022 179.99C122.929 179.71 123.912 179.678 124.971 179.892C126.02 180.099 127.035 180.613 128.014 181.433C129.012 182.285 129.702 183.268 130.083 184.383C130.472 185.488 130.48 186.719 130.109 188.074C129.745 189.42 128.942 190.834 127.7 192.316L121.761 199.403L102.253 183.055ZM125.522 190.537C126.342 189.558 126.881 188.641 127.139 187.787C127.404 186.923 127.432 186.159 127.224 185.496C127.023 184.823 126.623 184.243 126.022 183.755C125.365 183.189 124.615 182.843 123.772 182.718C122.937 182.584 122.09 182.691 121.23 183.042C120.371 183.392 119.603 183.971 118.925 184.78L114.929 189.549L121.638 195.172L125.522 190.537ZM116.462 183.449C117.049 182.749 117.445 181.994 117.648 181.186C117.851 180.378 117.841 179.597 117.616 178.843C117.392 178.089 116.947 177.434 116.282 176.877C115.699 176.388 115.065 176.086 114.381 175.972C113.688 175.85 112.978 175.958 112.251 176.297C111.531 176.626 110.829 177.2 110.144 178.017L106.441 182.436L112.827 187.788L116.462 183.449Z" fill="black"/>
<path d="M139.634 140.597L141.942 138.432L157.43 154.945L166.046 146.864L167.97 148.916L157.047 159.161L139.634 140.597Z" fill="black"/>
<path d="M194.885 125.661L192.395 127.614L176.686 107.587L179.176 105.634L194.885 125.661Z" fill="black"/>
<path d="M215.494 87.3031C214.981 86.658 214.35 86.2207 213.603 85.9913C212.866 85.7555 212.065 85.7348 211.2 85.9294C210.346 86.1176 209.49 86.4878 208.633 87.04C207.707 87.6367 206.984 88.3113 206.466 89.0638C205.947 89.8164 205.665 90.5905 205.62 91.3862C205.569 92.172 205.762 92.9048 206.2 93.5845C206.851 94.5731 207.752 95.0731 208.902 95.0846C210.046 95.0862 211.274 94.8599 212.584 94.4058L215.093 93.6258C217.021 92.983 218.863 92.7159 220.62 92.8246C222.377 92.9333 223.823 93.8693 224.96 95.6326C225.715 96.8048 226.092 98.0606 226.091 99.3998C226.083 100.729 225.667 102.042 224.844 103.34C224.021 104.637 222.802 105.806 221.186 106.847C219.669 107.824 218.187 108.424 216.741 108.645C215.294 108.866 213.96 108.743 212.738 108.275C211.527 107.801 210.496 107.002 209.646 105.877L212.364 104.125C212.928 104.849 213.613 105.328 214.419 105.561C215.235 105.788 216.093 105.8 216.993 105.596C217.887 105.383 218.764 104.992 219.625 104.423C220.61 103.789 221.395 103.06 221.98 102.237C222.565 101.414 222.892 100.569 222.96 99.702C223.023 98.8253 222.81 98.0077 222.321 97.2492C221.896 96.5892 221.358 96.155 220.708 95.9466C220.051 95.7283 219.332 95.6829 218.55 95.8105C217.771 95.9219 216.864 96.1369 215.829 96.4555L212.742 97.441C210.658 98.0586 208.852 98.219 207.322 97.9221C205.802 97.6188 204.597 96.7646 203.705 95.3594C202.943 94.1773 202.587 92.9219 202.637 91.5932C202.687 90.2645 203.115 88.992 203.921 87.7759C204.727 86.5597 205.819 85.5073 207.198 84.6187C208.557 83.7428 209.943 83.1988 211.353 82.9867C212.764 82.7747 214.059 82.9022 215.238 83.3692C216.421 83.82 217.373 84.5727 218.095 85.6274L215.494 87.3031Z" fill="black"/>
<path d="M247.437 60.4511L250.298 59.1001L255.132 69.3365L267.307 63.5869L262.474 53.3505L265.366 51.9845L276.235 75.0005L273.342 76.3665L268.493 66.0983L256.318 71.8479L261.167 82.1161L258.305 83.4671L247.437 60.4511Z" fill="black"/>
<path d="M304.587 35.2663L319.274 30.5256L320.138 33.2021L308.462 36.971L311.075 45.0675L321.982 41.547L322.835 44.1901L311.928 47.7105L314.553 55.8405L326.396 52.0177L327.26 54.6942L312.405 59.4889L304.587 35.2663Z" fill="black"/>
<path d="M355.307 20.1167L363.796 18.4637C365.694 18.0942 367.339 18.1083 368.729 18.5061C370.132 18.9016 371.256 19.6198 372.104 20.6606C372.951 21.7015 373.523 22.9811 373.818 24.4994C374.112 26.0063 374.064 27.3884 373.676 28.6459C373.286 29.8919 372.516 30.9613 371.364 31.854C370.213 32.7468 368.694 33.3768 366.807 33.7441L359.975 35.0746L359.424 32.2449L366.118 30.9414C367.418 30.6883 368.439 30.2924 369.182 29.7538C369.937 29.213 370.429 28.5559 370.661 27.7825C370.904 27.0069 370.933 26.1119 370.747 25.0974C370.536 24.0759 370.169 23.234 369.646 22.5718C369.133 21.8958 368.418 21.444 367.502 21.2164C366.598 20.9866 365.496 20.9982 364.196 21.2513L358.951 22.2726L363.278 44.4959L360.172 45.1006L355.307 20.1167ZM378.151 41.5999L374.527 42.3054L366.305 32.2661L369.825 31.5807L378.151 41.5999Z" fill="black"/>
<path d="M439.891 8.54687L443.055 8.54687L443.055 21.1328H443.371L454.691 8.54687L458.84 8.54687L448.188 20.043L458.84 34L454.973 34L446.219 22.2227L443.055 25.8086L443.055 34L439.891 34L439.891 8.54687Z" fill="black"/>
<path d="M496.003 35.6996L492.853 35.3994L495.268 10.0611L498.418 10.3613L496.003 35.6996Z" fill="black"/>
<path d="M529.645 13.7675L533.708 36.041L534.018 36.1064L546.74 17.3781L550.455 18.1627L545.196 43.0665L542.272 42.449L546.246 23.6336L546.005 23.5827L534.292 40.7635L531.54 40.1823L527.774 19.7323L527.568 19.6888L523.594 38.5042L520.67 37.8866L525.93 12.9829L529.645 13.7675Z" fill="black"/>
<path d="M629.247 41.9114L628.108 64.5238L628.395 64.6583L645.064 49.3365L648.501 50.95L637.684 73.9906L634.979 72.7207L643.151 55.313L642.929 55.2084L627.596 69.2546L625.05 68.0594L626.062 47.2903L625.871 47.2006L617.699 64.6083L614.994 63.3384L625.81 40.2979L629.247 41.9114Z" fill="black"/>
<path d="M678.248 95.7464L675.554 94.0871L688.902 72.4148L691.596 74.0741L678.248 95.7464Z" fill="black"/>
<path d="M715.117 120.952L712.717 119.113L713.839 94.9921L713.643 94.8424L701.583 110.581L699.072 108.656L714.553 88.453L716.981 90.3134L715.838 114.462L716.034 114.612L728.115 98.8454L730.599 100.749L715.117 120.952Z" fill="black"/>
<path d="M770.142 145.899C770.673 144.868 770.985 143.831 771.077 142.787C771.177 141.752 771.049 140.744 770.693 139.764C770.337 138.783 769.74 137.866 768.902 137.013C767.834 135.927 766.593 135.224 765.179 134.905C763.765 134.586 762.264 134.706 760.676 135.264C759.088 135.821 757.534 136.848 756.013 138.343C754.492 139.838 753.446 141.374 752.877 142.952C752.308 144.53 752.175 146.041 752.477 147.485C752.788 148.922 753.498 150.212 754.607 151.357C755.617 152.385 756.73 153.075 757.945 153.425C759.168 153.784 760.399 153.782 761.636 153.42C762.874 153.058 764.037 152.343 765.123 151.275L765.663 152.075L760.34 146.659L762.321 144.712L769.147 151.658L767.191 153.58C765.712 155.034 764.104 155.998 762.368 156.472C760.64 156.937 758.917 156.906 757.198 156.377C755.479 155.848 753.913 154.865 752.5 153.427C750.915 151.814 749.899 150.019 749.452 148.043C749.013 146.075 749.168 144.067 749.915 142.019C750.662 139.97 751.98 138.018 753.869 136.161C755.75 134.313 757.721 133.033 759.782 132.322C761.851 131.603 763.858 131.471 765.801 131.927C767.745 132.383 769.48 133.389 771.008 134.943C772.248 136.206 773.14 137.605 773.681 139.143C774.231 140.689 774.392 142.249 774.163 143.821C773.95 145.394 773.374 146.864 772.434 148.231L770.142 145.899Z" fill="black"/>
<path d="M807.284 174.888L802.028 187.571L802.218 187.824L815.866 186.337L818.059 189.263L800.523 190.896L792.168 197.158L790.249 194.598L798.604 188.336L805.113 171.99L807.284 174.888Z" fill="black"/>
<path d="M839.317 219.888L847 233.273L844.56 234.673L838.453 224.032L831.074 228.267L836.779 238.207L834.37 239.59L828.665 229.649L821.256 233.902L827.451 244.696L825.011 246.096L817.241 232.557L839.317 219.888Z" fill="black"/>
<path d="M861.461 291.502C859.022 292.504 856.704 292.937 854.507 292.801C852.321 292.66 850.409 292.001 848.773 290.824C847.14 289.657 845.912 288.071 845.089 286.066C844.26 284.05 844.017 282.053 844.357 280.076C844.698 278.099 845.596 276.292 847.052 274.655C848.519 273.014 850.472 271.692 852.911 270.69C855.35 269.688 857.662 269.257 859.848 269.398C862.045 269.534 863.96 270.186 865.592 271.352C867.224 272.519 868.454 274.11 869.283 276.126C870.107 278.132 870.348 280.123 870.007 282.1C869.671 284.088 868.77 285.902 867.303 287.544C865.847 289.181 863.9 290.5 861.461 291.502ZM860.298 288.673C862.271 287.863 863.826 286.837 864.964 285.597C866.101 284.357 866.797 283.013 867.052 281.566C867.31 280.129 867.143 278.69 866.551 277.249C865.959 275.807 865.064 274.661 863.865 273.81C862.671 272.97 861.234 272.509 859.553 272.427C857.873 272.345 856.046 272.709 854.073 273.519C852.111 274.325 850.561 275.348 849.424 276.588C848.297 277.824 847.599 279.162 847.329 280.603C847.075 282.051 847.239 283.498 847.82 284.944C848.423 286.381 849.322 287.519 850.516 288.359C851.725 289.205 853.164 289.672 854.834 289.759C856.515 289.841 858.336 289.479 860.298 288.673Z" fill="black"/>
<path d="M868.519 353.23L867.779 350.299L883.631 332.084L883.571 331.845L864.346 336.698L863.571 333.63L888.25 327.401L888.999 330.366L873.113 348.59L873.173 348.829L892.432 343.967L893.198 347.001L868.519 353.23Z" fill="black"/>
<path d="M896.174 406.945C897.231 406.466 898.119 405.846 898.838 405.085C899.559 404.336 900.085 403.466 900.415 402.476C900.744 401.486 900.845 400.397 900.718 399.209C900.555 397.694 900.018 396.372 899.107 395.245C898.197 394.117 896.946 393.279 895.355 392.731C893.764 392.182 891.908 392.022 889.787 392.25C887.666 392.478 885.893 393.034 884.468 393.918C883.042 394.801 882 395.903 881.34 397.224C880.692 398.542 880.447 399.995 880.606 401.581C880.76 403.014 881.204 404.245 881.94 405.274C882.676 406.315 883.642 407.077 884.837 407.562C886.033 408.046 887.388 408.207 888.902 408.044L888.829 409.007L888.018 401.457L890.779 401.16L891.819 410.843L889.093 411.135C887.03 411.357 885.172 411.115 883.517 410.408C881.873 409.701 880.541 408.606 879.522 407.125C878.502 405.643 877.885 403.9 877.67 401.896C877.428 399.647 877.746 397.61 878.622 395.783C879.5 393.968 880.867 392.489 882.724 391.347C884.582 390.204 886.827 389.492 889.46 389.209C892.082 388.927 894.422 389.148 896.479 389.869C898.549 390.59 900.203 391.732 901.444 393.296C902.684 394.86 903.421 396.726 903.654 398.893C903.843 400.653 903.672 402.303 903.143 403.845C902.614 405.399 901.772 406.721 900.616 407.812C899.473 408.913 898.109 409.707 896.523 410.196L896.174 406.945Z" fill="black"/>
<path d="M897.381 450.873L897.362 448.272L906.938 450.134L906.964 453.544L897.381 450.873Z" fill="black"/>
<path d="M899.369 490.914C900.194 490.9 900.924 490.667 901.562 490.214C902.198 489.773 902.703 489.151 903.076 488.347C903.447 487.555 903.675 486.651 903.76 485.635C903.851 484.537 903.757 483.553 903.476 482.683C903.196 481.813 902.754 481.118 902.151 480.597C901.559 480.077 900.86 479.784 900.054 479.717C898.874 479.63 897.929 480.04 897.218 480.945C896.52 481.851 895.951 482.962 895.512 484.278L894.601 486.742C893.936 488.662 893.025 490.286 891.868 491.612C890.711 492.939 889.087 493.515 886.996 493.341C885.607 493.225 884.381 492.759 883.321 491.941C882.271 491.125 881.484 489.995 880.957 488.552C880.43 487.109 880.247 485.429 880.406 483.514C880.556 481.716 880.984 480.176 881.69 478.894C882.397 477.612 883.308 476.63 884.423 475.946C885.537 475.275 886.799 474.945 888.209 474.956L887.941 478.179C887.023 478.185 886.226 478.437 885.55 478.933C884.873 479.441 884.34 480.114 883.953 480.952C883.578 481.791 883.353 482.725 883.279 483.753C883.182 484.921 883.281 485.988 883.577 486.953C883.873 487.919 884.344 488.693 884.989 489.276C885.646 489.859 886.424 490.189 887.323 490.264C888.106 490.329 888.778 490.167 889.339 489.779C889.912 489.391 890.387 488.849 890.762 488.151C891.149 487.466 891.531 486.616 891.909 485.601L893.01 482.553C893.79 480.524 894.764 478.994 895.932 477.963C897.099 476.943 898.511 476.508 900.168 476.657C901.569 476.774 902.782 477.257 903.804 478.107C904.827 478.956 905.575 480.071 906.048 481.451C906.522 482.831 906.69 484.338 906.554 485.973C906.42 487.585 906.007 489.014 905.315 490.262C904.623 491.51 903.733 492.459 902.644 493.109C901.566 493.772 900.389 494.068 899.113 493.997L899.369 490.914Z" fill="black"/>
<path d="M895.025 562.037L892.692 570.365C892.174 572.215 891.401 573.672 890.373 574.735C889.345 575.798 888.159 576.47 886.815 576.751C885.482 577.034 884.065 576.966 882.564 576.546C881.074 576.128 879.828 575.451 878.825 574.513C877.822 573.575 877.152 572.383 876.815 570.938C876.474 569.503 876.561 567.867 877.076 566.027L878.745 560.069L881.454 560.828L879.823 566.651C879.469 567.914 879.398 569.014 879.61 569.95C879.823 570.886 880.257 571.64 880.912 572.213C881.563 572.797 882.395 573.237 883.408 573.533C884.427 573.806 885.366 573.862 886.227 573.702C887.084 573.552 887.842 573.126 888.502 572.422C889.158 571.73 889.665 570.746 890.022 569.471L891.463 564.325L869.662 558.219L870.515 555.172L895.025 562.037Z" fill="black"/>
<path d="M858.832 629.81C856.41 628.767 854.48 627.413 853.041 625.747C851.613 624.086 850.747 622.259 850.444 620.266C850.137 618.283 850.412 616.296 851.269 614.305C852.131 612.303 853.388 610.733 855.039 609.594C856.691 608.455 858.611 607.833 860.799 607.729C862.998 607.63 865.308 608.101 867.73 609.144C870.152 610.187 872.077 611.539 873.505 613.2C874.944 614.866 875.817 616.69 876.125 618.672C876.432 620.655 876.155 622.647 875.293 624.649C874.436 626.64 873.181 628.205 871.53 629.344C869.874 630.494 867.946 631.119 865.747 631.218C863.559 631.322 861.254 630.853 858.832 629.81ZM860.042 627.001C862 627.844 863.821 628.239 865.503 628.185C867.185 628.131 868.632 627.688 869.844 626.858C871.052 626.038 871.964 624.913 872.581 623.481C873.197 622.05 873.39 620.608 873.16 619.157C872.926 617.716 872.25 616.366 871.134 615.107C870.017 613.848 868.479 612.797 866.52 611.953C864.572 611.115 862.757 610.722 861.075 610.776C859.404 610.835 857.959 611.272 856.741 612.087C855.528 612.917 854.609 614.046 853.981 615.473C853.376 616.909 853.19 618.347 853.425 619.788C853.665 621.244 854.339 622.599 855.444 623.854C856.561 625.113 858.093 626.162 860.042 627.001Z" fill="black"/>
<path d="M851.974 673.617L847.527 681.034C846.533 682.693 845.423 683.906 844.198 684.674C842.966 685.452 841.68 685.809 840.339 685.743C838.999 685.677 837.665 685.246 836.338 684.451C835.022 683.662 834.026 682.702 833.35 681.573C832.684 680.45 832.404 679.162 832.51 677.709C832.616 676.256 833.164 674.705 834.152 673.056L837.731 667.086L840.203 668.569L836.697 674.418C836.016 675.554 835.627 676.578 835.531 677.49C835.429 678.413 835.588 679.219 836.008 679.908C836.422 680.607 837.069 681.227 837.947 681.767C838.848 682.294 839.719 682.584 840.561 682.638C841.407 682.708 842.221 682.478 843.003 681.949C843.778 681.431 844.507 680.603 845.188 679.468L847.935 674.884L828.517 663.243L830.144 660.529L851.974 673.617ZM820.726 676.239L822.624 673.073L835.587 673.671L833.743 676.747L820.726 676.239Z" fill="black"/>
<path d="M823.538 719.015L811.701 734.127L809.487 732.392L814.408 726.11L796.585 712.148L798.558 709.63L816.381 723.591L821.324 717.281L823.538 719.015Z" fill="black"/>
<path d="M786.662 763.891L775.81 774.715L773.824 772.724L782.436 764.134L776.428 758.11L768.637 765.881L766.675 763.915L774.466 756.144L766.447 748.104L768.687 745.87L786.662 763.891Z" fill="black"/>
<path d="M723.271 803.897C721.669 801.803 720.648 799.677 720.208 797.52C719.775 795.373 719.915 793.356 720.626 791.469C721.328 789.59 722.54 787.992 724.262 786.675C725.993 785.35 727.858 784.596 729.855 784.411C731.853 784.225 733.831 784.623 735.791 785.603C737.757 786.592 739.541 788.134 741.143 790.228C742.745 792.323 743.762 794.444 744.195 796.591C744.634 798.748 744.503 800.766 743.802 802.646C743.1 804.525 741.883 806.127 740.152 807.451C738.43 808.768 736.57 809.519 734.572 809.704C732.565 809.897 730.579 809.498 728.612 808.509C726.653 807.529 724.872 805.992 723.271 803.897ZM725.7 802.039C726.996 803.733 728.39 804.968 729.884 805.744C731.377 806.52 732.855 806.842 734.319 806.711C735.773 806.588 737.12 806.052 738.358 805.105C739.596 804.158 740.47 802.996 740.979 801.618C741.48 800.246 741.551 798.739 741.193 797.094C740.836 795.45 740.009 793.781 738.713 792.087C737.425 790.402 736.034 789.171 734.541 788.396C733.054 787.629 731.581 787.303 730.119 787.418C728.655 787.549 727.301 788.083 726.056 789.02C724.825 789.976 723.959 791.14 723.459 792.511C722.956 793.899 722.88 795.41 723.231 797.045C723.588 798.69 724.412 800.354 725.7 802.039Z" fill="black"/>
<path d="M696 838.577L693.26 840.16L681.933 820.557L671.705 826.467L670.298 824.032L683.266 816.539L696 838.577Z" fill="black"/>
<path d="M638.8 840.555L641.669 839.22L652.411 862.295L649.543 863.63L638.8 840.555Z" fill="black"/>
<path d="M600.33 869.93C599.471 867.437 599.174 865.098 599.438 862.912C599.705 860.738 600.474 858.868 601.745 857.303C603.004 855.741 604.659 854.608 606.709 853.902C608.77 853.192 610.777 853.065 612.731 853.52C614.685 853.975 616.436 854.977 617.986 856.525C619.539 858.085 620.745 860.111 621.604 862.604C622.462 865.097 622.758 867.431 622.49 869.605C622.226 871.791 621.465 873.664 620.205 875.226C618.946 876.787 617.286 877.923 615.225 878.633C613.175 879.339 611.173 879.464 609.219 879.009C607.255 878.558 605.495 877.552 603.942 875.993C602.392 874.444 601.188 872.423 600.33 869.93ZM603.222 868.934C603.916 870.951 604.849 872.563 606.021 873.771C607.193 874.978 608.494 875.751 609.924 876.089C611.343 876.431 612.79 876.348 614.263 875.84C615.737 875.333 616.933 874.506 617.852 873.359C618.76 872.216 619.304 870.808 619.484 869.135C619.664 867.462 619.406 865.617 618.712 863.6C618.021 861.595 617.09 859.988 615.918 858.78C614.75 857.584 613.455 856.809 612.032 856.456C610.601 856.118 609.148 856.197 607.67 856.694C606.2 857.212 605.012 858.043 604.104 859.186C603.189 860.344 602.639 861.754 602.456 863.416C602.276 865.089 602.531 866.929 603.222 868.934Z" fill="black"/>
<path d="M535.555 873.631C536.425 876.651 539.026 880.28 543.514 882.945C545.721 884.264 547.905 885.042 549.992 885.251L550.154 886.754C546.214 888.157 542.535 891.307 540.392 895.268C539.305 897.268 538.679 899.183 538.526 901.118L537.023 901.281C536.024 897.732 532.799 894.025 528.715 891.75C526.71 890.627 524.681 889.941 522.666 889.725L522.504 888.221C526.388 886.969 530.622 882.926 532.522 879.064C533.47 877.115 533.968 875.359 534.052 873.793L535.555 873.631Z" fill="black"/>
</svg>
