<svg width="86" height="130" viewBox="0 0 86 130" fill="none" xmlns="http://www.w3.org/2000/svg">
<path d="M1.05712 67.0154C1.24637 67.0845 20.5342 74.1506 28.6721 86.6282C36.9676 99.3347 41.6201 128.116 41.6674 128.407C41.8093 129.344 42.3929 130.05 43.0079 129.997C43.6546 129.988 44.1908 129.315 44.3328 128.374C44.3801 128.073 48.8433 98.3311 57.265 86.7021C65.4186 75.4332 84.8011 67.0774 84.9903 66.994C85.6054 66.7365 86.0153 65.8926 85.9996 64.9414C85.9838 63.9926 85.5422 63.1821 84.9272 62.9746C84.7221 62.9079 65.2924 56.1899 57.3438 43.4048C49.1429 30.2358 44.3801 1.8548 44.3328 1.57111C44.175 0.650903 43.623 0.00238766 43.0079 3.75849e-06L42.9922 3.75986e-06C42.3772 3.81363e-06 41.8251 0.63897 41.6674 1.55679C41.6201 1.86671 36.2896 32.6912 28.7195 43.3046C20.5343 54.7738 1.19909 62.9175 1.00984 62.9985C0.394772 63.2488 -0.0153352 64.088 0.000435856 65.0344C0.0162069 65.9809 0.442054 66.7961 1.05712 67.0154Z" fill="black"/>
</svg>
