<svg width="760" height="760" viewBox="0 0 760 760" fill="none" xmlns="http://www.w3.org/2000/svg">
<g clip-path="url(#clip0_335_1645)">
<rect width="760" height="760" rx="380" fill="#272727"/>
<path d="M232.713 149.547C232.713 149.547 180.204 87.8199 192.041 70.8367C203.878 53.8534 274.929 118.677 274.929 118.677C274.929 118.677 401.588 97.7601 512.793 149.547C568.734 117.999 573.895 127.248 573.895 127.248C573.895 127.248 594.829 139.208 562.908 226.025C562.642 226.742 565.954 231.978 566.287 232.815C568.759 239.167 570.253 245.857 570.716 252.656C571.198 259.312 570.904 266.001 569.838 272.589C569.219 276.529 568.371 280.429 567.298 284.27C566.686 286.45 566.016 288.611 565.289 290.755C564.505 293.041 563.454 294.649 566.619 295.486C570.11 296.362 573.456 297.736 576.555 299.566C581.781 302.69 586.484 306.613 590.493 311.194C601.054 323.22 606.321 338.888 608.236 354.569L644.626 651.563L64.876 636.174L76.1946 597.344C76.1946 597.344 130.434 480.827 143.122 464.362C155.811 447.897 178.075 300.775 178.075 300.775C178.075 300.775 205.421 177.321 232.713 149.547Z" fill="white" stroke="black" stroke-miterlimit="10" stroke-linecap="round"/>
<path d="M181.759 299.22C181.929 299.431 182.131 299.615 182.357 299.765C183.199 300.258 184.139 300.558 185.111 300.642C196.008 302.608 206.711 305.525 217.098 309.36C229.43 313.697 241.314 319.215 252.583 325.838L282.695 338.688C282.695 338.688 303.803 345.891 319.764 345.639C394.937 314.263 516.702 329.772 516.702 329.772C516.702 329.772 547.759 309.838 553.597 309.546C559.436 309.253 556.005 327.552 556.005 327.552L503.654 395.964C503.654 395.964 493.36 402.143 463.846 414.821C434.333 427.498 405.152 427.166 375.625 424.774C346.098 422.382 325.177 387.047 325.177 387.047C325.177 387.047 307.673 336.296 290.503 369.904C273.332 403.512 258.236 407.618 258.236 407.618C230.092 416.535 218.428 414.489 187.877 396.309C157.326 378.13 144.97 342.808 139.823 323.606C137.677 315.507 137.033 307.085 137.921 298.755C138.373 294.489 139.091 290.463 142.736 287.725C148.761 283.22 157.286 281.985 164.189 279.327C168.764 277.573 173.34 275.819 177.928 274.118C180.051 273.096 182.282 272.316 184.579 271.792C184.046 279.606 182.849 287.34 181.785 295.087C181.626 296.523 180.908 298.064 181.759 299.22Z" fill="black"/>
<path d="M688.011 603.125C688.011 603.125 667.116 580.295 667.116 550.142C666.222 533.978 666.222 517.776 667.116 501.611C667.998 479.026 662.75 456.623 651.927 436.774C651.927 436.774 624.382 384.815 606.626 363.459C588.87 342.104 557.667 333.573 557.667 333.573C557.667 333.573 446.463 318.144 510.823 409.705C510.823 409.705 523.951 430.409 541.321 444.043C541.321 444.043 541.454 483.272 523.951 518.249C506.448 553.225 510.557 616.507 510.557 616.507L688.011 603.125Z" fill="white" stroke="black" stroke-miterlimit="10" stroke-linecap="round"/>
<path d="M183.648 397.745C183.648 397.745 267.441 553.052 400.937 465.266" stroke="black" stroke-miterlimit="10" stroke-linecap="round"/>
<path d="M277.122 435.299C277.122 435.299 264.38 419.99 287.031 423.472C306.58 426.537 306.58 426.537 306.58 426.537C306.58 426.537 320.109 428.23 308.391 438.515C296.674 448.801 294.24 452.269 286.127 444.947C278.013 437.625 277.122 435.299 277.122 435.299Z" fill="#FFD2DB" stroke="black" stroke-miterlimit="10"/>
<path d="M293.323 448.854L299.681 475.431C299.681 475.431 291.528 483.79 274.729 483.046" stroke="black" stroke-miterlimit="10" stroke-linecap="round"/>
<path d="M299.642 475.378C299.642 475.378 320.59 487.431 346.326 483.033" stroke="black" stroke-miterlimit="10" stroke-linecap="round"/>
<path d="M-284.449 606.049L1024.96 596.585L1013.94 852L-312 807.067L-284.449 606.049Z" fill="#917E6C"/>
<path d="M492.629 220.431L539.965 225.746L550.02 158.411C534.911 178.012 514.92 198.903 492.629 220.431Z" fill="#FFD2DB"/>
<path d="M557.042 146.676C548.223 168.164 492.242 220.058 492.242 220.058" stroke="black" stroke-miterlimit="10" stroke-linecap="round"/>
<path d="M519.68 393.253C523.013 391.33 523.334 385.649 520.395 380.564C517.457 375.479 512.373 372.916 509.04 374.839C505.706 376.762 505.386 382.443 508.324 387.528C511.262 392.612 516.346 395.176 519.68 393.253Z" fill="#FFD2DB"/>
<path d="M545.754 417.263C551.51 413.374 552.767 405.184 548.561 398.971C544.356 392.757 536.28 390.874 530.524 394.763C524.768 398.653 523.511 406.843 527.716 413.056C531.922 419.269 539.998 421.153 545.754 417.263Z" fill="#FFD2DB"/>
<path d="M537.644 383.936C540.977 382.013 541.297 376.332 538.359 371.247C535.421 366.163 530.337 363.599 527.003 365.522C523.67 367.445 523.35 373.126 526.288 378.211C529.226 383.296 534.31 385.859 537.644 383.936Z" fill="#FFD2DB"/>
<path d="M557.765 386.429C560.57 384.811 560.996 380.299 558.715 376.352C556.434 372.405 552.311 370.517 549.505 372.135C546.7 373.754 546.275 378.265 548.556 382.212C550.836 386.159 554.96 388.047 557.765 386.429Z" fill="#FFD2DB"/>
<path d="M551.523 416.328C556.155 415.003 558.583 409.295 556.945 403.58C555.307 397.865 550.224 394.306 545.591 395.632C540.959 396.957 538.531 402.665 540.169 408.38C541.807 414.095 546.89 417.653 551.523 416.328Z" fill="#FFD2DB"/>
<path d="M541.591 421.661C544.47 417.874 543.191 412.061 538.733 408.679C534.276 405.296 528.329 405.624 525.45 409.411C522.57 413.198 523.85 419.01 528.307 422.393C532.764 425.776 538.712 425.448 541.591 421.661Z" fill="#FFD2DB"/>
<path d="M514.488 408.735C516.053 407.832 515.634 404.179 513.551 400.575C511.469 396.971 508.512 394.782 506.947 395.684C505.382 396.587 505.801 400.24 507.884 403.844C509.966 407.448 512.923 409.638 514.488 408.735Z" fill="#FFD2DB"/>
<path d="M536.175 439.618C536.175 439.618 547.853 450.249 555.939 452.614" stroke="black" stroke-miterlimit="10" stroke-linecap="round"/>
<path d="M228.723 144.71C228.723 144.71 246.306 167.766 252.836 172.391Z" fill="white"/>
<path d="M228.723 144.71C228.723 144.71 246.306 167.766 252.836 172.391" stroke="black" stroke-miterlimit="10" stroke-linecap="round"/>
</g>
<defs>
<clipPath id="clip0_335_1645">
<rect width="760" height="760" rx="380" fill="white"/>
</clipPath>
</defs>
</svg>
