<svg width="760" height="760" viewBox="0 0 760 760" fill="none" xmlns="http://www.w3.org/2000/svg">
<g clip-path="url(#clip0_324_1610)">
<rect width="760" height="760" rx="380" fill="#37436A"/>
<path d="M250.27 176.617C250.27 176.617 202.264 120.136 213.086 104.596C223.908 89.0556 288.877 148.37 288.877 148.37C288.877 148.37 404.661 129.231 506.328 176.617C557.484 147.75 562.189 156.213 562.189 156.213C562.189 156.213 581.329 167.157 552.145 246.596C551.902 247.252 554.942 252.043 555.246 252.809C557.501 258.623 558.866 264.743 559.295 270.964C559.73 277.054 559.461 283.174 558.493 289.203C557.917 292.807 557.137 296.376 556.158 299.892C555.615 301.886 555.007 303.864 554.334 305.825C553.617 307.917 552.656 309.388 555.55 310.154C558.738 310.956 561.793 312.213 564.621 313.887C569.401 316.743 573.702 320.333 577.365 324.527C587.019 335.531 591.835 349.868 593.598 364.216L626.83 636.02L96.7915 621.891L107.152 586.36C107.152 586.36 156.726 479.745 168.339 464.679C179.951 449.613 200.294 314.994 200.294 314.994C200.294 314.994 225.331 202.031 250.27 176.617Z" fill="white" stroke="#070707" stroke-miterlimit="10" stroke-linecap="round"/>
<path d="M509.854 341.526C510.124 341.947 510.124 341.947 510.125 341.947L510.126 341.946L510.129 341.944L510.145 341.934L510.205 341.895L510.444 341.743C510.652 341.609 510.96 341.413 511.353 341.164C512.139 340.665 513.268 339.952 514.64 339.096C517.384 337.383 521.098 335.097 524.977 332.803C528.857 330.509 532.897 328.209 536.296 326.469C537.995 325.598 539.528 324.871 540.795 324.354C542.082 323.83 543.038 323.547 543.61 323.518C544.127 323.493 544.523 323.666 544.852 324.001C545.196 324.351 545.48 324.897 545.697 325.623C546.129 327.077 546.24 329.079 546.183 331.143C546.126 333.195 545.904 335.261 545.695 336.817C545.591 337.594 545.491 338.242 545.416 338.696C545.379 338.922 545.349 339.1 545.327 339.221C545.323 339.246 545.319 339.268 545.315 339.288L497.721 401.737L497.693 401.753C497.619 401.797 497.506 401.863 497.351 401.951C497.043 402.128 496.571 402.394 495.919 402.75C494.616 403.462 492.595 404.533 489.728 405.966C483.996 408.83 474.885 413.14 461.384 418.912C434.482 430.414 407.942 430.169 380.978 427.981C367.668 426.902 356.242 418.376 348.11 410.049C344.051 405.892 340.83 401.802 338.623 398.752C337.52 397.226 336.671 395.962 336.099 395.08C335.813 394.639 335.596 394.293 335.451 394.059C335.378 393.942 335.324 393.852 335.288 393.792L335.259 393.745L335.229 393.659C335.198 393.571 335.151 393.441 335.09 393.273C334.968 392.938 334.788 392.451 334.552 391.843C334.081 390.626 333.392 388.924 332.514 386.978C330.763 383.091 328.254 378.207 325.239 374.279C322.248 370.383 318.647 367.281 314.689 367.25C310.681 367.219 306.611 370.32 302.671 378.045C294.851 393.376 287.512 401.95 282.153 406.684C279.474 409.051 277.288 410.46 275.782 411.274C275.029 411.681 274.446 411.94 274.056 412.096C273.861 412.173 273.714 412.225 273.618 412.258C273.592 412.266 273.57 412.273 273.551 412.279C273.535 412.284 273.522 412.288 273.512 412.291L273.489 412.298L273.486 412.299L273.485 412.299L273.485 412.299L273.485 412.299L273.476 412.302L273.466 412.305C260.626 416.377 251.614 417.92 242.356 416.412C233.082 414.901 223.503 410.319 209.548 402.004C181.812 385.479 170.545 353.336 165.843 335.779C163.885 328.431 163.301 320.784 164.118 313.224L164.118 313.222C164.532 309.316 165.167 305.841 168.322 303.478L168.323 303.477C171.002 301.468 174.26 300.175 177.671 299.077C178.868 298.692 180.092 298.329 181.313 297.966C183.538 297.306 185.758 296.647 187.804 295.859C191.987 294.254 196.167 292.65 200.37 291.095L200.393 291.087L200.414 291.076C202.117 290.255 203.898 289.608 205.73 289.144C205.305 294.936 204.503 300.682 203.698 306.446C203.545 307.545 203.391 308.645 203.24 309.746L203.24 309.748C203.2 310.045 203.133 310.354 203.059 310.688L203.055 310.702C202.984 311.024 202.907 311.37 202.861 311.713C202.768 312.409 202.787 313.186 203.298 313.87L203.298 313.87L203.307 313.881C203.49 314.113 203.708 314.316 203.952 314.483L203.966 314.492L203.981 314.501C204.811 314.987 205.739 315.284 206.697 315.368C216.603 317.163 226.332 319.823 235.773 323.318L235.773 323.318L235.78 323.321C247.026 327.276 257.861 332.312 268.135 338.358L268.162 338.374L268.192 338.387L295.733 350.145L295.751 350.152L295.768 350.158L295.93 349.685C295.768 350.158 295.768 350.158 295.768 350.158L295.769 350.159L295.772 350.16L295.783 350.163L295.826 350.178C295.863 350.191 295.919 350.209 295.992 350.234C296.138 350.282 296.354 350.353 296.634 350.444C297.193 350.624 298.007 350.882 299.029 351.19C301.072 351.806 303.949 352.625 307.284 353.437C313.944 355.059 322.466 356.661 329.827 356.545L329.923 356.543L330.011 356.506C364.274 342.191 409.2 338.561 445.605 338.52C463.799 338.499 479.848 339.375 491.348 340.256C497.098 340.696 501.711 341.138 504.885 341.47C506.472 341.635 507.699 341.774 508.529 341.87C508.944 341.919 509.26 341.957 509.472 341.983C509.578 341.995 509.658 342.005 509.711 342.012L509.771 342.02L509.786 342.021L509.79 342.022C509.791 342.022 509.791 342.022 509.854 341.526ZM509.854 341.526L510.124 341.947L509.971 342.045L509.791 342.022L509.854 341.526Z" fill="#231F20" stroke="black"/>
<path d="M666.482 591.65C666.482 591.65 647.428 570.759 647.428 543.169C646.611 528.378 646.611 513.553 647.428 498.762C648.235 478.096 643.436 457.597 633.542 439.435C633.542 439.435 608.359 391.891 592.114 372.351C575.869 352.81 547.403 345.052 547.403 345.052C547.403 345.052 445.773 330.886 504.565 414.666C504.565 414.666 516.566 433.611 532.459 446.087C532.459 446.087 532.581 481.982 516.566 513.986C500.552 545.99 504.334 603.895 504.334 603.895L666.482 591.65Z" fill="white" stroke="#070707" stroke-miterlimit="10" stroke-linecap="round"/>
<path d="M205.426 403.723C205.426 403.723 282.031 545.832 404.078 465.506" stroke="#0A0A0A" stroke-miterlimit="10" stroke-linecap="round"/>
<path d="M290.872 438.086C290.872 438.086 279.223 424.078 299.931 427.264C320.638 430.449 317.465 430.206 317.465 430.206C317.465 430.206 330.172 431.617 319.471 441.028C308.771 450.44 306.521 453.613 299.116 446.914C291.711 440.214 290.872 438.086 290.872 438.086Z" fill="#FFD2DB" stroke="#111010" stroke-miterlimit="10"/>
<path d="M305.682 450.489L311.506 474.808C311.506 474.808 304.052 482.456 288.695 481.775" stroke="#231F20" stroke-miterlimit="10" stroke-linecap="round"/>
<path d="M311.506 474.759C311.506 474.759 330.645 485.788 354.186 481.763" stroke="#070707" stroke-miterlimit="10" stroke-linecap="round"/>
<path d="M-12.1346 591.741L790 583.059L783.251 817.375L-29 776.154L-12.1346 591.741Z" fill="#192551"/>
<path d="M487.894 241.477L531.182 246.341L540.375 184.728C526.561 202.663 508.285 221.778 487.894 241.477Z" fill="#FFD2DB"/>
<path d="M546.795 173.991C538.733 193.653 487.541 241.136 487.541 241.136" stroke="#231F20" stroke-miterlimit="10" stroke-linecap="round"/>
<path d="M512.621 399.612C515.669 397.852 515.962 392.654 513.275 388.002C510.589 383.349 505.941 381.004 502.894 382.763C499.846 384.522 499.553 389.721 502.239 394.373C504.926 399.026 509.574 401.371 512.621 399.612Z" fill="#FFD2DB"/>
<path d="M536.46 421.592C541.722 418.033 542.872 410.539 539.027 404.854C535.182 399.169 527.799 397.445 522.536 401.004C517.274 404.563 516.125 412.057 519.97 417.742C523.814 423.427 531.197 425.151 536.46 421.592Z" fill="#FFD2DB"/>
<path d="M529.055 391.081C532.103 389.321 532.396 384.123 529.709 379.471C527.023 374.818 522.375 372.472 519.328 374.232C516.28 375.991 515.987 381.19 518.673 385.842C521.36 390.495 526.008 392.84 529.055 391.081Z" fill="#FFD2DB"/>
<path d="M547.462 393.363C550.027 391.882 550.416 387.754 548.331 384.142C546.245 380.53 542.476 378.803 539.911 380.284C537.346 381.765 536.957 385.893 539.043 389.504C541.128 393.116 544.897 394.844 547.462 393.363Z" fill="#FFD2DB"/>
<path d="M541.747 420.726C545.982 419.513 548.201 414.29 546.704 409.061C545.206 403.831 540.559 400.575 536.324 401.788C532.089 403.001 529.869 408.223 531.367 413.453C532.864 418.682 537.512 421.938 541.747 420.726Z" fill="#FFD2DB"/>
<path d="M532.665 425.606C535.297 422.141 534.128 416.823 530.053 413.727C525.978 410.632 520.54 410.932 517.908 414.397C515.276 417.863 516.446 423.181 520.52 426.276C524.595 429.372 530.033 429.072 532.665 425.606Z" fill="#FFD2DB"/>
<path d="M507.876 413.779C509.306 412.953 508.923 409.61 507.019 406.312C505.115 403.015 502.412 401.011 500.981 401.837C499.55 402.663 499.934 406.006 501.838 409.304C503.742 412.601 506.445 414.605 507.876 413.779Z" fill="#FFD2DB"/>
<path d="M527.716 442.038C527.716 442.038 538.392 451.765 545.786 453.93" stroke="#070707" stroke-miterlimit="10" stroke-linecap="round"/>
<path d="M246.635 172.191C246.635 172.191 262.71 193.288 268.668 197.52Z" fill="white"/>
<path d="M246.635 172.191C246.635 172.191 262.71 193.288 268.668 197.52" stroke="#070707" stroke-miterlimit="10" stroke-linecap="round"/>
</g>
<defs>
<clipPath id="clip0_324_1610">
<rect width="760" height="760" rx="380" fill="white"/>
</clipPath>
</defs>
</svg>
