<svg width="29" height="24" viewBox="0 0 29 24" fill="none" xmlns="http://www.w3.org/2000/svg">
<path d="M1 4.05357C1 3.24371 1.31607 2.46703 1.87868 1.89437C2.44129 1.32171 3.20435 1 4 1H25C25.7956 1 26.5587 1.32171 27.1213 1.89437C27.6839 2.46703 28 3.24371 28 4.05357V19.3214C28 20.1313 27.6839 20.908 27.1213 21.4806C26.5587 22.0533 25.7956 22.375 25 22.375H4C3.20435 22.375 2.44129 22.0533 1.87868 21.4806C1.31607 20.908 1 20.1313 1 19.3214V4.05357Z" stroke="black" stroke-width="2" stroke-linecap="round" stroke-linejoin="round"/>
<path d="M1 4.375L14.5 13.375L28 4.375" stroke="black" stroke-width="2" stroke-linecap="round" stroke-linejoin="round"/>
</svg>
