<svg width="46" height="62" viewBox="0 0 46 62" fill="none" xmlns="http://www.w3.org/2000/svg">
<path d="M38.5228 26.6472C38.4369 26.6176 29.6909 23.6282 25.9998 18.3498C22.2325 12.9745 20.1247 0.797199 20.1056 0.674821C20.0388 0.276755 19.7718 -0.0204178 19.4953 0.00109929C19.2091 0.00513374 18.9515 0.290216 18.8943 0.688282C18.8752 0.814695 16.8437 13.3995 13.0287 18.3188C9.32809 23.0862 0.544005 26.6217 0.448628 26.6567C0.181575 26.7656 -0.00919532 27.1233 0.00034229 27.5241C0.0098799 27.9262 0.210132 28.2691 0.486723 28.3579C0.572562 28.3848 9.38537 31.2277 12.9906 36.6366C16.7103 42.2081 18.8752 54.2146 18.8943 54.3357C18.9611 54.7243 19.2091 54.9987 19.4953 55C19.7814 55 20.0293 54.7297 20.1056 54.3411C20.1247 54.2106 22.5377 41.1699 25.9712 36.6796C29.6909 31.8261 38.4559 28.3807 38.5418 28.3471C38.8184 28.2409 39.0092 27.8858 38.9997 27.4864C38.9997 27.0857 38.7994 26.74 38.5228 26.6472Z" fill="#B8BBC9"/>
<path d="M12.9087 34.5004C16.0524 35.5062 19.6158 37.2219 21.8214 40.2375C23.6072 42.6781 24.7511 46.3687 25.5 49.9517C26.2489 46.3687 27.3928 42.6781 29.1786 40.2375C31.3842 37.2219 34.9476 35.5062 38.0914 34.5004C34.9476 33.4947 31.3842 31.7798 29.1786 28.7625C27.3928 26.3227 26.2489 22.6313 25.5 19.0483C24.7511 22.6321 23.6072 26.3219 21.8214 28.7625C19.6158 31.7798 16.0524 33.4947 12.9087 34.5004ZM25.5 62C24.7841 62 24.175 61.465 24.0763 60.7459C24.0433 60.4985 24.0022 60.1018 23.9528 59.5527C23.6401 56.2763 22.6854 46.3079 19.5088 41.9707C16.4392 37.7752 9.59213 36.5536 7.01626 36.0936C6.58009 36.0161 6.29207 35.9645 6.08633 35.9103C5.44442 35.747 5 35.1662 5 34.5004C5 33.8346 5.44442 33.2538 6.08633 33.0897C6.29207 33.0355 6.58009 32.9847 7.01626 32.9072C9.59213 32.4472 16.4392 31.2265 19.5088 27.0302C22.6854 22.6921 23.6401 12.7237 23.9528 9.44815C24.0022 8.89902 24.0433 8.50238 24.0763 8.25406C24.175 7.53495 24.7841 7 25.5 7C26.216 7 26.825 7.53495 26.9237 8.25406C26.9567 8.50238 26.9978 8.89902 27.0472 9.44898C27.3599 12.7246 28.3146 22.693 31.4912 27.0302C34.5608 31.2265 41.4079 32.4472 43.9837 32.9072C44.4199 32.9847 44.7079 33.0355 44.9137 33.0897C45.5556 33.2538 46 33.8346 46 34.5004C46 35.1662 45.5556 35.747 44.9137 35.9103C44.7079 35.9645 44.4199 36.0161 43.9837 36.0936C41.4079 36.5536 34.5608 37.7752 31.4912 41.9707C28.3146 46.307 27.3599 56.2754 27.0472 59.551C26.9978 60.101 26.9567 60.4985 26.9237 60.7459C26.825 61.465 26.216 62 25.5 62Z" fill="#47537D"/>
</svg>
