<svg width="33" height="24" viewBox="0 0 33 24" fill="none" xmlns="http://www.w3.org/2000/svg">
<path d="M1.87652 6.98235L16.8886 6.98235L16.8886 1.52236C16.8887 1.22127 16.9988 0.926954 17.205 0.676626C17.4112 0.426298 17.7043 0.231196 18.0471 0.115982C18.3899 0.000768881 18.7672 -0.0293844 19.1311 0.0293372C19.4951 0.0880587 19.8294 0.233021 20.0919 0.445893L32.4506 10.4736C32.8024 10.7592 33 11.1464 33 11.5501C33 11.9538 32.8024 12.341 32.4506 12.6266L20.0919 22.6543C19.8294 22.8672 19.4951 23.0121 19.1311 23.0709C18.7672 23.1296 18.3899 23.0994 18.0471 22.9842C17.7043 22.869 17.4112 22.6739 17.205 22.4236C16.9988 22.1732 16.8887 21.8789 16.8886 21.5778L16.8886 16.1179L1.87652 16.1179C1.37883 16.1179 0.901534 15.9574 0.549619 15.6719C0.197704 15.3864 9.66037e-08 14.9991 1.01419e-07 14.5953L1.74046e-07 8.50493C1.78861e-07 8.10112 0.197704 7.71384 0.549619 7.4283C0.901534 7.14276 1.37883 6.98235 1.87652 6.98235Z" fill="#D8A3A3"/>
</svg>
