<svg width="49" height="50" viewBox="0 0 49 50" fill="none" xmlns="http://www.w3.org/2000/svg">
<path d="M47.9195 23.4775L33.9155 15.8189L26.2568 1.81491C25.9021 1.1669 25.2221 0.76289 24.4821 0.76289C23.7435 0.76289 23.0635 1.1669 22.7088 1.81491L15.0501 15.8189L1.04614 23.4775C0.396809 23.8322 -0.00585938 24.5122 -0.00585938 25.2522C-0.00585938 25.9909 0.396809 26.6709 1.04614 27.0256L15.0501 34.6842L22.7088 48.6882C23.0635 49.3375 23.7435 49.7402 24.4821 49.7402C25.2221 49.7402 25.9021 49.3375 26.2568 48.6882L33.9155 34.6842L47.9195 27.0256C48.5675 26.6709 48.9715 25.9909 48.9715 25.2522C48.9715 24.5122 48.5675 23.8322 47.9195 23.4775Z" fill="#D56270"/>
</svg>
