<svg width="760" height="760" viewBox="0 0 760 760" fill="none" xmlns="http://www.w3.org/2000/svg">
<g clip-path="url(#clip0_324_1587)">
<rect width="760" height="760" rx="380" fill="black"/>
<path d="M238.808 161.902C238.808 161.902 186.758 100.663 198.491 83.8143C210.225 66.9653 280.653 131.276 280.653 131.276C280.653 131.276 406.203 110.525 516.434 161.902C571.885 130.604 577.001 139.78 577.001 139.78C577.001 139.78 597.752 151.645 566.111 237.776C565.847 238.487 569.13 243.682 569.459 244.513C571.91 250.814 573.391 257.451 573.85 264.196C574.328 270.799 574.036 277.436 572.979 283.972C572.366 287.88 571.525 291.75 570.461 295.561C569.855 297.723 569.191 299.867 568.471 301.994C567.693 304.262 566.651 305.857 569.789 306.688C573.249 307.557 576.566 308.92 579.637 310.735C584.818 313.834 589.48 317.727 593.454 322.271C603.922 334.202 609.143 349.746 611.041 365.303L647.112 659.95L72.4404 644.683L83.6599 606.159C83.6599 606.159 137.424 490.563 150.001 474.228C162.579 457.894 184.648 311.935 184.648 311.935C184.648 311.935 211.754 189.457 238.808 161.902Z" fill="white" stroke="#070707" stroke-miterlimit="10" stroke-linecap="round"/>
<path d="M188.299 310.393C188.468 310.602 188.668 310.784 188.892 310.933C189.726 311.422 190.659 311.719 191.622 311.803C202.423 313.754 213.033 316.647 223.329 320.452C235.553 324.754 247.333 330.229 258.503 336.8L288.352 349.549C288.352 349.549 309.274 356.694 325.095 356.444C399.61 325.317 520.309 340.702 520.309 340.702C520.309 340.702 551.093 320.926 556.881 320.636C562.669 320.346 559.267 338.501 559.267 338.501L507.375 406.371C507.375 406.371 497.171 412.502 467.916 425.079C438.661 437.657 409.736 437.327 380.467 434.954C351.199 432.581 330.461 397.525 330.461 397.525C330.461 397.525 313.111 347.176 296.091 380.518C279.07 413.86 264.106 417.933 264.106 417.933C236.209 426.78 224.647 424.749 194.364 406.714C164.08 388.678 151.833 353.636 146.73 334.585C144.604 326.551 143.965 318.195 144.845 309.931C145.293 305.699 146.005 301.704 149.618 298.988C155.59 294.519 164.041 293.293 170.883 290.656C175.419 288.916 179.954 287.176 184.502 285.488C186.606 284.475 188.817 283.701 191.094 283.181C190.567 290.933 189.38 298.606 188.326 306.292C188.167 307.716 187.455 309.246 188.299 310.393Z" fill="#231F20"/>
<path d="M690.117 611.894C690.117 611.894 669.405 589.244 669.405 559.33C668.519 543.293 668.519 527.22 669.405 511.183C670.28 488.776 665.077 466.55 654.349 446.859C654.349 446.859 627.046 395.31 609.445 374.123C591.845 352.937 560.915 344.473 560.915 344.473C560.915 344.473 450.685 329.166 514.482 420.003C514.482 420.003 527.494 440.544 544.712 454.07C544.712 454.07 544.844 492.989 527.494 527.689C510.144 562.389 514.218 625.171 514.218 625.171L690.117 611.894Z" fill="white" stroke="#070707" stroke-miterlimit="10" stroke-linecap="round"/>
<path d="M190.172 408.138C190.172 408.138 273.23 562.218 405.557 475.125" stroke="#0A0A0A" stroke-miterlimit="10" stroke-linecap="round"/>
<path d="M282.828 445.395C282.828 445.395 270.198 430.207 292.65 433.662C315.102 437.116 311.661 436.852 311.661 436.852C311.661 436.852 325.439 438.381 313.824 448.586C302.209 458.79 299.796 462.231 291.754 454.967C283.712 447.702 282.828 445.395 282.828 445.395Z" fill="#FFD2DB" stroke="#111010" stroke-miterlimit="10"/>
<path d="M298.885 458.843L305.187 485.211C305.187 485.211 297.105 493.503 280.454 492.765" stroke="#231F20" stroke-miterlimit="10" stroke-linecap="round"/>
<path d="M305.148 485.158C305.148 485.158 325.913 497.116 351.424 492.752" stroke="#070707" stroke-miterlimit="10" stroke-linecap="round"/>
<path d="M-45.7008 614.162L824 604.749L816.683 858.802L-64 814.109L-45.7008 614.162Z" fill="#99785F"/>
<path d="M496.446 232.225L543.368 237.499L553.335 170.696C538.358 190.142 518.542 210.867 496.446 232.225Z" fill="#FFD2DB"/>
<path d="M560.295 159.055C551.554 180.373 496.063 231.856 496.063 231.856" stroke="#231F20" stroke-miterlimit="10" stroke-linecap="round"/>
<path d="M523.26 403.681C526.565 401.773 526.882 396.137 523.97 391.092C521.057 386.048 516.017 383.505 512.713 385.413C509.409 387.32 509.092 392.956 512.004 398.001C514.917 403.045 519.956 405.588 523.26 403.681Z" fill="#FFD2DB"/>
<path d="M549.106 427.502C554.812 423.644 556.058 415.518 551.889 409.354C547.721 403.19 539.716 401.321 534.01 405.18C528.304 409.039 527.058 417.164 531.227 423.328C535.396 429.492 543.4 431.361 549.106 427.502Z" fill="#FFD2DB"/>
<path d="M541.066 394.438C544.37 392.53 544.688 386.894 541.775 381.849C538.863 376.805 533.823 374.262 530.519 376.169C527.215 378.077 526.897 383.713 529.81 388.758C532.722 393.802 537.762 396.345 541.066 394.438Z" fill="#FFD2DB"/>
<path d="M561.01 396.912C563.791 395.306 564.213 390.83 561.952 386.914C559.691 382.999 555.604 381.126 552.823 382.731C550.042 384.337 549.621 388.813 551.882 392.728C554.143 396.644 558.23 398.517 561.01 396.912Z" fill="#FFD2DB"/>
<path d="M554.824 426.575C559.416 425.26 561.822 419.597 560.199 413.927C558.575 408.258 553.536 404.727 548.944 406.042C544.352 407.357 541.946 413.019 543.57 418.689C545.193 424.359 550.232 427.89 554.824 426.575Z" fill="#FFD2DB"/>
<path d="M544.98 431.865C547.834 428.107 546.566 422.341 542.148 418.985C537.729 415.629 531.834 415.954 528.98 419.711C526.126 423.469 527.394 429.235 531.812 432.591C536.231 435.947 542.126 435.622 544.98 431.865Z" fill="#FFD2DB"/>
<path d="M518.115 419.041C519.666 418.145 519.25 414.521 517.186 410.945C515.122 407.37 512.191 405.198 510.64 406.093C509.089 406.989 509.504 410.613 511.569 414.189C513.633 417.764 516.564 419.936 518.115 419.041Z" fill="#FFD2DB"/>
<path d="M539.61 449.68C539.61 449.68 551.186 460.227 559.202 462.574" stroke="#070707" stroke-miterlimit="10" stroke-linecap="round"/>
<path d="M234.852 157.104C234.852 157.104 252.281 179.978 258.754 184.566Z" fill="white"/>
<path d="M234.852 157.104C234.852 157.104 252.281 179.978 258.754 184.566" stroke="#070707" stroke-miterlimit="10" stroke-linecap="round"/>
</g>
<defs>
<clipPath id="clip0_324_1587">
<rect width="760" height="760" rx="380" fill="white"/>
</clipPath>
</defs>
</svg>
