<svg width="86" height="86" viewBox="0 0 86 86" fill="none" xmlns="http://www.w3.org/2000/svg">
<path d="M55.502 53.7613C54.974 54.0493 54.5407 54.484 54.2527 55.0107L43.1153 75.3747L31.978 55.0107C31.6887 54.484 31.2553 54.0493 30.7273 53.7613L10.3633 42.624L30.7273 31.4867C31.2553 31.1987 31.6887 30.764 31.978 30.2374L43.1153 9.87335L54.2527 30.2374C54.5407 30.764 54.974 31.1987 55.502 31.4867L75.866 42.624L55.502 53.7613ZM83.9273 39.8653L59.3273 26.4107L45.874 1.81065C45.322 0.802658 44.2647 0.176018 43.1153 0.176018C41.966 0.176018 40.9073 0.802658 40.3567 1.81065L26.902 26.4107L2.30202 39.8653C1.29402 40.416 0.666016 41.4747 0.666016 42.624C0.666016 43.7733 1.29402 44.8307 2.30202 45.3827L26.902 58.8374L40.3567 83.4374C40.9073 84.4454 41.966 85.072 43.1153 85.072C44.2647 85.072 45.322 84.4454 45.874 83.4374L59.3273 58.8374L83.9273 45.3827C84.9367 44.8307 85.5633 43.7733 85.5633 42.624C85.5633 41.4747 84.9367 40.416 83.9273 39.8653Z" fill="#37436A"/>
</svg>
