<svg width="185" height="197" viewBox="0 0 185 197" fill="none" xmlns="http://www.w3.org/2000/svg">
<path d="M183.919 74.4775L169.915 66.8189L162.257 52.8149C161.902 52.1669 161.222 51.7629 160.482 51.7629C159.743 51.7629 159.063 52.1669 158.709 52.8149L151.05 66.8189L137.046 74.4775C136.397 74.8322 135.994 75.5122 135.994 76.2522C135.994 76.9909 136.397 77.6709 137.046 78.0256L151.05 85.6842L158.709 99.6882C159.063 100.338 159.743 100.74 160.482 100.74C161.222 100.74 161.902 100.338 162.257 99.6882L169.915 85.6842L183.919 78.0256C184.567 77.6709 184.971 76.9909 184.971 76.2522C184.971 75.5122 184.567 74.8322 183.919 74.4775Z" fill="#47537D"/>
<path d="M97.502 164.761C96.974 165.049 96.5407 165.484 96.2527 166.011L85.1153 186.375L73.978 166.011C73.6887 165.484 73.2553 165.049 72.7273 164.761L52.3633 153.624L72.7273 142.487C73.2553 142.199 73.6887 141.764 73.978 141.237L85.1153 120.873L96.2527 141.237C96.5407 141.764 96.974 142.199 97.502 142.487L117.866 153.624L97.502 164.761ZM125.927 150.865L101.327 137.411L87.874 112.811C87.322 111.803 86.2647 111.176 85.1153 111.176C83.966 111.176 82.9073 111.803 82.3567 112.811L68.902 137.411L44.302 150.865C43.294 151.416 42.666 152.475 42.666 153.624C42.666 154.773 43.294 155.831 44.302 156.383L68.902 169.837L82.3567 194.437C82.9073 195.445 83.966 196.072 85.1153 196.072C86.2647 196.072 87.322 195.445 87.874 194.437L101.327 169.837L125.927 156.383C126.937 155.831 127.563 154.773 127.563 153.624C127.563 152.475 126.937 151.416 125.927 150.865Z" fill="#37436A"/>
<path d="M21.3331 32.3895C15.2359 32.3895 10.2765 27.4294 10.2765 21.3334C10.2765 15.2347 15.2359 10.2761 21.3331 10.2761C27.4317 10.2761 32.3904 15.2347 32.3904 21.3334C32.3904 27.4294 27.4317 32.3895 21.3331 32.3895ZM21.3331 8.39233e-05C9.57026 8.39233e-05 0 9.57075 0 21.3334C0 33.0961 9.57026 42.6667 21.3331 42.6667C33.0971 42.6667 42.6664 33.0961 42.6664 21.3334C42.6664 9.57075 33.0971 8.39233e-05 21.3331 8.39233e-05Z" fill="#C6CAD7"/>
</svg>
