<svg width="70" height="70" viewBox="0 0 70 70" fill="none" xmlns="http://www.w3.org/2000/svg">
<path d="M27.6246 39.2527H9.79273C7.40767 39.2527 5.49968 37.325 5.49968 34.9526C5.49968 32.5802 7.40767 30.6511 9.79273 30.6511H27.6246C29.1398 30.6511 30.3744 29.4221 30.3744 27.9097V10.0723C30.3744 7.69987 32.2965 5.77077 34.6676 5.77077C37.0386 5.77077 38.9746 7.69987 38.9746 10.0723V27.9097C38.9746 29.4221 40.1952 30.6511 41.7245 30.6511H59.5422C61.9273 30.6511 63.8494 32.5802 63.8494 34.9526C63.8494 37.325 61.9273 39.2527 59.5422 39.2527H41.7245C40.1952 39.2527 38.9746 40.4845 38.9746 41.9969V59.8329C38.9746 62.2053 37.0386 64.1331 34.6676 64.1331C32.2965 64.1331 30.3744 62.2053 30.3744 59.8329V41.9969C30.3744 40.4845 29.1398 39.2527 27.6246 39.2527ZM59.5422 25.1655H44.4603V10.0723C44.4603 4.67506 40.069 0.285126 34.6676 0.285126C29.2801 0.285126 24.8888 4.67506 24.8888 10.0723V25.1655H9.79273C4.40531 25.1655 0 29.5568 0 34.9526C0 40.3484 4.40531 44.7383 9.79273 44.7383H24.8888V59.8329C24.8888 65.2287 29.2801 69.6187 34.6676 69.6187C40.069 69.6187 44.4603 65.2287 44.4603 59.8329V44.7383H59.5422C64.9437 44.7383 69.335 40.3484 69.335 34.9526C69.335 29.5568 64.9437 25.1655 59.5422 25.1655Z" fill="#5F7BCD"/>
</svg>
