<svg width="445" height="871" viewBox="0 0 445 871" fill="none" xmlns="http://www.w3.org/2000/svg">
<path d="M425 -3L444.094 -43L397.906 -43L417 -3L425 -3ZM326 326.014C326 323.805 324.209 322.014 322 322.014C319.791 322.014 318 323.805 318 326.014L326 326.014ZM417 -7L417 638.5L425 638.5L425 -7L417 -7ZM326 638.5L326 326.014L318 326.014L318 638.5L326 638.5ZM371.5 684C346.371 684 326 663.629 326 638.5L318 638.5C318 668.047 341.953 692 371.5 692L371.5 684ZM417 638.5C417 663.629 396.629 684 371.5 684L371.5 692C401.047 692 425 668.047 425 638.5L417 638.5Z" fill="#F3EBDF"/>
<path d="M24 871L47.094 831L0.905991 831L24 871ZM120 537.24C120 539.45 121.791 541.24 124 541.24C126.209 541.24 128 539.45 128 537.24L120 537.24ZM28 835L28 247L20 247L20 835L28 835ZM120 247L120 537.24L128 537.24L128 247L120 247ZM74 201C99.4051 201 120 221.595 120 247L128 247C128 217.177 103.823 193 74 193L74 201ZM28 247C28 221.595 48.5949 201 74 201L74 193C44.1766 193 20 217.177 20 247L28 247Z" fill="#F3EBDF"/>
<path d="M222.762 444.863L222.762 246.363C222.762 218.956 244.98 196.738 272.387 196.738V196.738C299.794 196.738 322.012 218.956 322.012 246.363L322.012 444.863" stroke="#F3EBDF" stroke-width="8" stroke-linecap="round"/>
<path d="M123.512 444.863L123.512 638.637C123.512 666.044 145.73 688.262 173.137 688.262V688.262C200.544 688.262 222.762 666.044 222.762 638.637L222.762 444.863" stroke="#F3EBDF" stroke-width="8" stroke-linecap="round"/>
</svg>
